<svg width="155" height="13" viewBox="0 0 155 13" fill="none" xmlns="http://www.w3.org/2000/svg">
<mask id="path-1-outside-1_573_1855" maskUnits="userSpaceOnUse" x="4" y="0" width="146" height="12" fill="black">
<rect fill="white" x="4" width="146" height="12"/>
<path d="M6.38663 2.267H11.9102V3.37171H13.0149V5.58114H11.9102V6.68586H8.59606V10H6.38663V2.267ZM8.59606 3.37171V5.58114H10.8055V3.37171H8.59606ZM14.5173 2.267H20.0409V3.37171H21.1456V5.58114H20.0409V7.79057H21.1456V10H18.9362V7.79057H17.8315V6.68586H16.7268V10H14.5173V2.267ZM16.7268 3.37171V5.58114H18.9362V3.37171H16.7268ZM22.648 2.267H29.2763V3.37171H24.8575V5.58114H28.1716V6.68586H24.8575V8.89529H29.2763V10H22.648V2.267ZM31.8834 2.267H36.3023V3.37171H37.407V4.47643H35.1976V3.37171H32.9882V5.58114H36.3023V6.68586H37.407V8.89529H36.3023V10H31.8834V8.89529H30.7787V7.79057H32.9882V8.89529H35.1976V6.68586H31.8834V5.58114H30.7787V3.37171H31.8834V2.267ZM40.0141 2.267H44.433V3.37171H45.5377V4.47643H43.3283V3.37171H41.1189V5.58114H44.433V6.68586H45.5377V8.89529H44.433V10H40.0141V8.89529H38.9094V7.79057H41.1189V8.89529H43.3283V6.68586H40.0141V5.58114H38.9094V3.37171H40.0141V2.267ZM50.752 3.37171H52.9614V5.58114H54.0661V6.68586H51.8567V5.58114H50.752V3.37171ZM55.5685 2.267H61.0921V3.37171H62.1968V5.58114H61.0921V7.79057H62.1968V10H59.9874V7.79057H58.8827V6.68586H57.778V10H55.5685V2.267ZM57.778 3.37171V5.58114H59.9874V3.37171H57.778ZM63.6992 3.37171H65.9087V4.47643H67.0134V6.68586H64.804V4.47643H63.6992V3.37171ZM72.2276 2.267H78.8559V3.37171H76.6465V10H74.4371V3.37171H72.2276V2.267ZM81.4631 2.267H85.8819V3.37171H86.9866V8.89529H85.8819V10H81.4631V8.89529H80.3583V3.37171H81.4631V2.267ZM82.5678 3.37171V8.89529H84.7772V3.37171H82.5678ZM92.2009 2.267H97.7245V3.37171H98.8292V5.58114H97.7245V7.79057H98.8292V10H96.6197V7.79057H95.515V6.68586H94.4103V10H92.2009V2.267ZM94.4103 3.37171V5.58114H96.6197V3.37171H94.4103ZM100.332 2.267H106.96V3.37171H102.541V5.58114H105.855V6.68586H102.541V8.89529H106.96V10H100.332V2.267ZM109.567 2.267H113.986V3.37171H115.091V4.47643H112.881V3.37171H110.672V5.58114H113.986V6.68586H115.091V8.89529H113.986V10H109.567V8.89529H108.462V7.79057H110.672V8.89529H112.881V6.68586H109.567V5.58114H108.462V3.37171H109.567V2.267ZM116.593 2.267H123.221V3.37171H121.012V10H118.802V3.37171H116.593V2.267ZM125.828 2.267H130.247V3.37171H131.352V10H129.143V7.79057H126.933V10H124.724V3.37171H125.828V2.267ZM126.933 3.37171V6.68586H129.143V3.37171H126.933ZM132.854 2.267H138.378V3.37171H139.483V5.58114H138.378V7.79057H139.483V10H137.273V7.79057H136.169V6.68586H135.064V10H132.854V2.267ZM135.064 3.37171V5.58114H137.273V3.37171H135.064ZM140.985 2.267H147.613V3.37171H145.404V10H143.195V3.37171H140.985V2.267Z"/>
</mask>
<path d="M6.38663 2.267H11.9102V3.37171H13.0149V5.58114H11.9102V6.68586H8.59606V10H6.38663V2.267ZM8.59606 3.37171V5.58114H10.8055V3.37171H8.59606ZM14.5173 2.267H20.0409V3.37171H21.1456V5.58114H20.0409V7.79057H21.1456V10H18.9362V7.79057H17.8315V6.68586H16.7268V10H14.5173V2.267ZM16.7268 3.37171V5.58114H18.9362V3.37171H16.7268ZM22.648 2.267H29.2763V3.37171H24.8575V5.58114H28.1716V6.68586H24.8575V8.89529H29.2763V10H22.648V2.267ZM31.8834 2.267H36.3023V3.37171H37.407V4.47643H35.1976V3.37171H32.9882V5.58114H36.3023V6.68586H37.407V8.89529H36.3023V10H31.8834V8.89529H30.7787V7.79057H32.9882V8.89529H35.1976V6.68586H31.8834V5.58114H30.7787V3.37171H31.8834V2.267ZM40.0141 2.267H44.433V3.37171H45.5377V4.47643H43.3283V3.37171H41.1189V5.58114H44.433V6.68586H45.5377V8.89529H44.433V10H40.0141V8.89529H38.9094V7.79057H41.1189V8.89529H43.3283V6.68586H40.0141V5.58114H38.9094V3.37171H40.0141V2.267ZM50.752 3.37171H52.9614V5.58114H54.0661V6.68586H51.8567V5.58114H50.752V3.37171ZM55.5685 2.267H61.0921V3.37171H62.1968V5.58114H61.0921V7.79057H62.1968V10H59.9874V7.79057H58.8827V6.68586H57.778V10H55.5685V2.267ZM57.778 3.37171V5.58114H59.9874V3.37171H57.778ZM63.6992 3.37171H65.9087V4.47643H67.0134V6.68586H64.804V4.47643H63.6992V3.37171ZM72.2276 2.267H78.8559V3.37171H76.6465V10H74.4371V3.37171H72.2276V2.267ZM81.4631 2.267H85.8819V3.37171H86.9866V8.89529H85.8819V10H81.4631V8.89529H80.3583V3.37171H81.4631V2.267ZM82.5678 3.37171V8.89529H84.7772V3.37171H82.5678ZM92.2009 2.267H97.7245V3.37171H98.8292V5.58114H97.7245V7.79057H98.8292V10H96.6197V7.79057H95.515V6.68586H94.4103V10H92.2009V2.267ZM94.4103 3.37171V5.58114H96.6197V3.37171H94.4103ZM100.332 2.267H106.96V3.37171H102.541V5.58114H105.855V6.68586H102.541V8.89529H106.96V10H100.332V2.267ZM109.567 2.267H113.986V3.37171H115.091V4.47643H112.881V3.37171H110.672V5.58114H113.986V6.68586H115.091V8.89529H113.986V10H109.567V8.89529H108.462V7.79057H110.672V8.89529H112.881V6.68586H109.567V5.58114H108.462V3.37171H109.567V2.267ZM116.593 2.267H123.221V3.37171H121.012V10H118.802V3.37171H116.593V2.267ZM125.828 2.267H130.247V3.37171H131.352V10H129.143V7.79057H126.933V10H124.724V3.37171H125.828V2.267ZM126.933 3.37171V6.68586H129.143V3.37171H126.933ZM132.854 2.267H138.378V3.37171H139.483V5.58114H138.378V7.79057H139.483V10H137.273V7.79057H136.169V6.68586H135.064V10H132.854V2.267ZM135.064 3.37171V5.58114H137.273V3.37171H135.064ZM140.985 2.267H147.613V3.37171H145.404V10H143.195V3.37171H140.985V2.267Z" fill="#C0C0C0"/>
<path d="M6.38663 2.267V0.688832H4.80846V2.267H6.38663ZM11.9102 2.267H13.4884V0.688832H11.9102V2.267ZM11.9102 3.37171H10.332V4.94987H11.9102V3.37171ZM13.0149 3.37171H14.5931V1.79355H13.0149V3.37171ZM13.0149 5.58114V7.1593H14.5931V5.58114H13.0149ZM11.9102 5.58114V4.00298H10.332V5.58114H11.9102ZM11.9102 6.68586V8.26402H13.4884V6.68586H11.9102ZM8.59606 6.68586V5.10769H7.01789V6.68586H8.59606ZM8.59606 10V11.5782H10.1742V10H8.59606ZM6.38663 10H4.80846V11.5782H6.38663V10ZM8.59606 3.37171V1.79355H7.01789V3.37171H8.59606ZM8.59606 5.58114H7.01789V7.1593H8.59606V5.58114ZM10.8055 5.58114V7.1593H12.3837V5.58114H10.8055ZM10.8055 3.37171H12.3837V1.79355H10.8055V3.37171ZM6.38663 2.267V3.84516H11.9102V2.267V0.688832H6.38663V2.267ZM11.9102 2.267H10.332V3.37171H11.9102H13.4884V2.267H11.9102ZM11.9102 3.37171V4.94987H13.0149V3.37171V1.79355H11.9102V3.37171ZM13.0149 3.37171H11.4368V5.58114H13.0149H14.5931V3.37171H13.0149ZM13.0149 5.58114V4.00298H11.9102V5.58114V7.1593H13.0149V5.58114ZM11.9102 5.58114H10.332V6.68586H11.9102H13.4884V5.58114H11.9102ZM11.9102 6.68586V5.10769H8.59606V6.68586V8.26402H11.9102V6.68586ZM8.59606 6.68586H7.01789V10H8.59606H10.1742V6.68586H8.59606ZM8.59606 10V8.42184H6.38663V10V11.5782H8.59606V10ZM6.38663 10H7.96479V2.267H6.38663H4.80846V10H6.38663ZM8.59606 3.37171H7.01789V5.58114H8.59606H10.1742V3.37171H8.59606ZM8.59606 5.58114V7.1593H10.8055V5.58114V4.00298H8.59606V5.58114ZM10.8055 5.58114H12.3837V3.37171H10.8055H9.22732V5.58114H10.8055ZM10.8055 3.37171V1.79355H8.59606V3.37171V4.94987H10.8055V3.37171ZM14.5173 2.267V0.688832H12.9392V2.267H14.5173ZM20.0409 2.267H21.6191V0.688832H20.0409V2.267ZM20.0409 3.37171H18.4627V4.94987H20.0409V3.37171ZM21.1456 3.37171H22.7238V1.79355H21.1456V3.37171ZM21.1456 5.58114V7.1593H22.7238V5.58114H21.1456ZM20.0409 5.58114V4.00298H18.4627V5.58114H20.0409ZM20.0409 7.79057H18.4627V9.36873H20.0409V7.79057ZM21.1456 7.79057H22.7238V6.21241H21.1456V7.79057ZM21.1456 10V11.5782H22.7238V10H21.1456ZM18.9362 10H17.358V11.5782H18.9362V10ZM18.9362 7.79057H20.5144V6.21241H18.9362V7.79057ZM17.8315 7.79057H16.2533V9.36873H17.8315V7.79057ZM17.8315 6.68586H19.4096V5.10769H17.8315V6.68586ZM16.7268 6.68586V5.10769H15.1486V6.68586H16.7268ZM16.7268 10V11.5782H18.3049V10H16.7268ZM14.5173 10H12.9392V11.5782H14.5173V10ZM16.7268 3.37171V1.79355H15.1486V3.37171H16.7268ZM16.7268 5.58114H15.1486V7.1593H16.7268V5.58114ZM18.9362 5.58114V7.1593H20.5144V5.58114H18.9362ZM18.9362 3.37171H20.5144V1.79355H18.9362V3.37171ZM14.5173 2.267V3.84516H20.0409V2.267V0.688832H14.5173V2.267ZM20.0409 2.267H18.4627V3.37171H20.0409H21.6191V2.267H20.0409ZM20.0409 3.37171V4.94987H21.1456V3.37171V1.79355H20.0409V3.37171ZM21.1456 3.37171H19.5675V5.58114H21.1456H22.7238V3.37171H21.1456ZM21.1456 5.58114V4.00298H20.0409V5.58114V7.1593H21.1456V5.58114ZM20.0409 5.58114H18.4627V7.79057H20.0409H21.6191V5.58114H20.0409ZM20.0409 7.79057V9.36873H21.1456V7.79057V6.21241H20.0409V7.79057ZM21.1456 7.79057H19.5675V10H21.1456H22.7238V7.79057H21.1456ZM21.1456 10V8.42184H18.9362V10V11.5782H21.1456V10ZM18.9362 10H20.5144V7.79057H18.9362H17.358V10H18.9362ZM18.9362 7.79057V6.21241H17.8315V7.79057V9.36873H18.9362V7.79057ZM17.8315 7.79057H19.4096V6.68586H17.8315H16.2533V7.79057H17.8315ZM17.8315 6.68586V5.10769H16.7268V6.68586V8.26402H17.8315V6.68586ZM16.7268 6.68586H15.1486V10H16.7268H18.3049V6.68586H16.7268ZM16.7268 10V8.42184H14.5173V10V11.5782H16.7268V10ZM14.5173 10H16.0955V2.267H14.5173H12.9392V10H14.5173ZM16.7268 3.37171H15.1486V5.58114H16.7268H18.3049V3.37171H16.7268ZM16.7268 5.58114V7.1593H18.9362V5.58114V4.00298H16.7268V5.58114ZM18.9362 5.58114H20.5144V3.37171H18.9362H17.358V5.58114H18.9362ZM18.9362 3.37171V1.79355H16.7268V3.37171V4.94987H18.9362V3.37171ZM22.648 2.267V0.688832H21.0699V2.267H22.648ZM29.2763 2.267H30.8545V0.688832H29.2763V2.267ZM29.2763 3.37171V4.94987H30.8545V3.37171H29.2763ZM24.8575 3.37171V1.79355H23.2793V3.37171H24.8575ZM24.8575 5.58114H23.2793V7.1593H24.8575V5.58114ZM28.1716 5.58114H29.7498V4.00298H28.1716V5.58114ZM28.1716 6.68586V8.26402H29.7498V6.68586H28.1716ZM24.8575 6.68586V5.10769H23.2793V6.68586H24.8575ZM24.8575 8.89529H23.2793V10.4734H24.8575V8.89529ZM29.2763 8.89529H30.8545V7.31712H29.2763V8.89529ZM29.2763 10V11.5782H30.8545V10H29.2763ZM22.648 10H21.0699V11.5782H22.648V10ZM22.648 2.267V3.84516H29.2763V2.267V0.688832H22.648V2.267ZM29.2763 2.267H27.6982V3.37171H29.2763H30.8545V2.267H29.2763ZM29.2763 3.37171V1.79355H24.8575V3.37171V4.94987H29.2763V3.37171ZM24.8575 3.37171H23.2793V5.58114H24.8575H26.4356V3.37171H24.8575ZM24.8575 5.58114V7.1593H28.1716V5.58114V4.00298H24.8575V5.58114ZM28.1716 5.58114H26.5934V6.68586H28.1716H29.7498V5.58114H28.1716ZM28.1716 6.68586V5.10769H24.8575V6.68586V8.26402H28.1716V6.68586ZM24.8575 6.68586H23.2793V8.89529H24.8575H26.4356V6.68586H24.8575ZM24.8575 8.89529V10.4734H29.2763V8.89529V7.31712H24.8575V8.89529ZM29.2763 8.89529H27.6982V10H29.2763H30.8545V8.89529H29.2763ZM29.2763 10V8.42184H22.648V10V11.5782H29.2763V10ZM22.648 10H24.2262V2.267H22.648H21.0699V10H22.648ZM31.8834 2.267V0.688832H30.3053V2.267H31.8834ZM36.3023 2.267H37.8805V0.688832H36.3023V2.267ZM36.3023 3.37171H34.7241V4.94987H36.3023V3.37171ZM37.407 3.37171H38.9852V1.79355H37.407V3.37171ZM37.407 4.47643V6.05459H38.9852V4.47643H37.407ZM35.1976 4.47643H33.6194V6.05459H35.1976V4.47643ZM35.1976 3.37171H36.7758V1.79355H35.1976V3.37171ZM32.9882 3.37171V1.79355H31.41V3.37171H32.9882ZM32.9882 5.58114H31.41V7.1593H32.9882V5.58114ZM36.3023 5.58114H37.8805V4.00298H36.3023V5.58114ZM36.3023 6.68586H34.7241V8.26402H36.3023V6.68586ZM37.407 6.68586H38.9852V5.10769H37.407V6.68586ZM37.407 8.89529V10.4734H38.9852V8.89529H37.407ZM36.3023 8.89529V7.31712H34.7241V8.89529H36.3023ZM36.3023 10V11.5782H37.8805V10H36.3023ZM31.8834 10H30.3053V11.5782H31.8834V10ZM31.8834 8.89529H33.4616V7.31712H31.8834V8.89529ZM30.7787 8.89529H29.2006V10.4734H30.7787V8.89529ZM30.7787 7.79057V6.21241H29.2006V7.79057H30.7787ZM32.9882 7.79057H34.5663V6.21241H32.9882V7.79057ZM32.9882 8.89529H31.41V10.4734H32.9882V8.89529ZM35.1976 8.89529V10.4734H36.7758V8.89529H35.1976ZM35.1976 6.68586H36.7758V5.10769H35.1976V6.68586ZM31.8834 6.68586H30.3053V8.26402H31.8834V6.68586ZM31.8834 5.58114H33.4616V4.00298H31.8834V5.58114ZM30.7787 5.58114H29.2006V7.1593H30.7787V5.58114ZM30.7787 3.37171V1.79355H29.2006V3.37171H30.7787ZM31.8834 3.37171V4.94987H33.4616V3.37171H31.8834ZM31.8834 2.267V3.84516H36.3023V2.267V0.688832H31.8834V2.267ZM36.3023 2.267H34.7241V3.37171H36.3023H37.8805V2.267H36.3023ZM36.3023 3.37171V4.94987H37.407V3.37171V1.79355H36.3023V3.37171ZM37.407 3.37171H35.8289V4.47643H37.407H38.9852V3.37171H37.407ZM37.407 4.47643V2.89826H35.1976V4.47643V6.05459H37.407V4.47643ZM35.1976 4.47643H36.7758V3.37171H35.1976H33.6194V4.47643H35.1976ZM35.1976 3.37171V1.79355H32.9882V3.37171V4.94987H35.1976V3.37171ZM32.9882 3.37171H31.41V5.58114H32.9882H34.5663V3.37171H32.9882ZM32.9882 5.58114V7.1593H36.3023V5.58114V4.00298H32.9882V5.58114ZM36.3023 5.58114H34.7241V6.68586H36.3023H37.8805V5.58114H36.3023ZM36.3023 6.68586V8.26402H37.407V6.68586V5.10769H36.3023V6.68586ZM37.407 6.68586H35.8289V8.89529H37.407H38.9852V6.68586H37.407ZM37.407 8.89529V7.31712H36.3023V8.89529V10.4734H37.407V8.89529ZM36.3023 8.89529H34.7241V10H36.3023H37.8805V8.89529H36.3023ZM36.3023 10V8.42184H31.8834V10V11.5782H36.3023V10ZM31.8834 10H33.4616V8.89529H31.8834H30.3053V10H31.8834ZM31.8834 8.89529V7.31712H30.7787V8.89529V10.4734H31.8834V8.89529ZM30.7787 8.89529H32.3569V7.79057H30.7787H29.2006V8.89529H30.7787ZM30.7787 7.79057V9.36873H32.9882V7.79057V6.21241H30.7787V7.79057ZM32.9882 7.79057H31.41V8.89529H32.9882H34.5663V7.79057H32.9882ZM32.9882 8.89529V10.4734H35.1976V8.89529V7.31712H32.9882V8.89529ZM35.1976 8.89529H36.7758V6.68586H35.1976H33.6194V8.89529H35.1976ZM35.1976 6.68586V5.10769H31.8834V6.68586V8.26402H35.1976V6.68586ZM31.8834 6.68586H33.4616V5.58114H31.8834H30.3053V6.68586H31.8834ZM31.8834 5.58114V4.00298H30.7787V5.58114V7.1593H31.8834V5.58114ZM30.7787 5.58114H32.3569V3.37171H30.7787H29.2006V5.58114H30.7787ZM30.7787 3.37171V4.94987H31.8834V3.37171V1.79355H30.7787V3.37171ZM31.8834 3.37171H33.4616V2.267H31.8834H30.3053V3.37171H31.8834ZM40.0141 2.267V0.688832H38.436V2.267H40.0141ZM44.433 2.267H46.0112V0.688832H44.433V2.267ZM44.433 3.37171H42.8548V4.94987H44.433V3.37171ZM45.5377 3.37171H47.1159V1.79355H45.5377V3.37171ZM45.5377 4.47643V6.05459H47.1159V4.47643H45.5377ZM43.3283 4.47643H41.7501V6.05459H43.3283V4.47643ZM43.3283 3.37171H44.9065V1.79355H43.3283V3.37171ZM41.1189 3.37171V1.79355H39.5407V3.37171H41.1189ZM41.1189 5.58114H39.5407V7.1593H41.1189V5.58114ZM44.433 5.58114H46.0112V4.00298H44.433V5.58114ZM44.433 6.68586H42.8548V8.26402H44.433V6.68586ZM45.5377 6.68586H47.1159V5.10769H45.5377V6.68586ZM45.5377 8.89529V10.4734H47.1159V8.89529H45.5377ZM44.433 8.89529V7.31712H42.8548V8.89529H44.433ZM44.433 10V11.5782H46.0112V10H44.433ZM40.0141 10H38.436V11.5782H40.0141V10ZM40.0141 8.89529H41.5923V7.31712H40.0141V8.89529ZM38.9094 8.89529H37.3313V10.4734H38.9094V8.89529ZM38.9094 7.79057V6.21241H37.3313V7.79057H38.9094ZM41.1189 7.79057H42.697V6.21241H41.1189V7.79057ZM41.1189 8.89529H39.5407V10.4734H41.1189V8.89529ZM43.3283 8.89529V10.4734H44.9065V8.89529H43.3283ZM43.3283 6.68586H44.9065V5.10769H43.3283V6.68586ZM40.0141 6.68586H38.436V8.26402H40.0141V6.68586ZM40.0141 5.58114H41.5923V4.00298H40.0141V5.58114ZM38.9094 5.58114H37.3313V7.1593H38.9094V5.58114ZM38.9094 3.37171V1.79355H37.3313V3.37171H38.9094ZM40.0141 3.37171V4.94987H41.5923V3.37171H40.0141ZM40.0141 2.267V3.84516H44.433V2.267V0.688832H40.0141V2.267ZM44.433 2.267H42.8548V3.37171H44.433H46.0112V2.267H44.433ZM44.433 3.37171V4.94987H45.5377V3.37171V1.79355H44.433V3.37171ZM45.5377 3.37171H43.9596V4.47643H45.5377H47.1159V3.37171H45.5377ZM45.5377 4.47643V2.89826H43.3283V4.47643V6.05459H45.5377V4.47643ZM43.3283 4.47643H44.9065V3.37171H43.3283H41.7501V4.47643H43.3283ZM43.3283 3.37171V1.79355H41.1189V3.37171V4.94987H43.3283V3.37171ZM41.1189 3.37171H39.5407V5.58114H41.1189H42.697V3.37171H41.1189ZM41.1189 5.58114V7.1593H44.433V5.58114V4.00298H41.1189V5.58114ZM44.433 5.58114H42.8548V6.68586H44.433H46.0112V5.58114H44.433ZM44.433 6.68586V8.26402H45.5377V6.68586V5.10769H44.433V6.68586ZM45.5377 6.68586H43.9596V8.89529H45.5377H47.1159V6.68586H45.5377ZM45.5377 8.89529V7.31712H44.433V8.89529V10.4734H45.5377V8.89529ZM44.433 8.89529H42.8548V10H44.433H46.0112V8.89529H44.433ZM44.433 10V8.42184H40.0141V10V11.5782H44.433V10ZM40.0141 10H41.5923V8.89529H40.0141H38.436V10H40.0141ZM40.0141 8.89529V7.31712H38.9094V8.89529V10.4734H40.0141V8.89529ZM38.9094 8.89529H40.4876V7.79057H38.9094H37.3313V8.89529H38.9094ZM38.9094 7.79057V9.36873H41.1189V7.79057V6.21241H38.9094V7.79057ZM41.1189 7.79057H39.5407V8.89529H41.1189H42.697V7.79057H41.1189ZM41.1189 8.89529V10.4734H43.3283V8.89529V7.31712H41.1189V8.89529ZM43.3283 8.89529H44.9065V6.68586H43.3283H41.7501V8.89529H43.3283ZM43.3283 6.68586V5.10769H40.0141V6.68586V8.26402H43.3283V6.68586ZM40.0141 6.68586H41.5923V5.58114H40.0141H38.436V6.68586H40.0141ZM40.0141 5.58114V4.00298H38.9094V5.58114V7.1593H40.0141V5.58114ZM38.9094 5.58114H40.4876V3.37171H38.9094H37.3313V5.58114H38.9094ZM38.9094 3.37171V4.94987H40.0141V3.37171V1.79355H38.9094V3.37171ZM40.0141 3.37171H41.5923V2.267H40.0141H38.436V3.37171H40.0141ZM50.752 3.37171V1.79355H49.1738V3.37171H50.752ZM52.9614 3.37171H54.5396V1.79355H52.9614V3.37171ZM52.9614 5.58114H51.3832V7.1593H52.9614V5.58114ZM54.0661 5.58114H55.6443V4.00298H54.0661V5.58114ZM54.0661 6.68586V8.26402H55.6443V6.68586H54.0661ZM51.8567 6.68586H50.2785V8.26402H51.8567V6.68586ZM51.8567 5.58114H53.4349V4.00298H51.8567V5.58114ZM50.752 5.58114H49.1738V7.1593H50.752V5.58114ZM50.752 3.37171V4.94987H52.9614V3.37171V1.79355H50.752V3.37171ZM52.9614 3.37171H51.3832V5.58114H52.9614H54.5396V3.37171H52.9614ZM52.9614 5.58114V7.1593H54.0661V5.58114V4.00298H52.9614V5.58114ZM54.0661 5.58114H52.488V6.68586H54.0661H55.6443V5.58114H54.0661ZM54.0661 6.68586V5.10769H51.8567V6.68586V8.26402H54.0661V6.68586ZM51.8567 6.68586H53.4349V5.58114H51.8567H50.2785V6.68586H51.8567ZM51.8567 5.58114V4.00298H50.752V5.58114V7.1593H51.8567V5.58114ZM50.752 5.58114H52.3301V3.37171H50.752H49.1738V5.58114H50.752ZM55.5685 2.267V0.688832H53.9904V2.267H55.5685ZM61.0921 2.267H62.6703V0.688832H61.0921V2.267ZM61.0921 3.37171H59.5139V4.94987H61.0921V3.37171ZM62.1968 3.37171H63.775V1.79355H62.1968V3.37171ZM62.1968 5.58114V7.1593H63.775V5.58114H62.1968ZM61.0921 5.58114V4.00298H59.5139V5.58114H61.0921ZM61.0921 7.79057H59.5139V9.36873H61.0921V7.79057ZM62.1968 7.79057H63.775V6.21241H62.1968V7.79057ZM62.1968 10V11.5782H63.775V10H62.1968ZM59.9874 10H58.4092V11.5782H59.9874V10ZM59.9874 7.79057H61.5656V6.21241H59.9874V7.79057ZM58.8827 7.79057H57.3045V9.36873H58.8827V7.79057ZM58.8827 6.68586H60.4608V5.10769H58.8827V6.68586ZM57.778 6.68586V5.10769H56.1998V6.68586H57.778ZM57.778 10V11.5782H59.3561V10H57.778ZM55.5685 10H53.9904V11.5782H55.5685V10ZM57.778 3.37171V1.79355H56.1998V3.37171H57.778ZM57.778 5.58114H56.1998V7.1593H57.778V5.58114ZM59.9874 5.58114V7.1593H61.5656V5.58114H59.9874ZM59.9874 3.37171H61.5656V1.79355H59.9874V3.37171ZM55.5685 2.267V3.84516H61.0921V2.267V0.688832H55.5685V2.267ZM61.0921 2.267H59.5139V3.37171H61.0921H62.6703V2.267H61.0921ZM61.0921 3.37171V4.94987H62.1968V3.37171V1.79355H61.0921V3.37171ZM62.1968 3.37171H60.6187V5.58114H62.1968H63.775V3.37171H62.1968ZM62.1968 5.58114V4.00298H61.0921V5.58114V7.1593H62.1968V5.58114ZM61.0921 5.58114H59.5139V7.79057H61.0921H62.6703V5.58114H61.0921ZM61.0921 7.79057V9.36873H62.1968V7.79057V6.21241H61.0921V7.79057ZM62.1968 7.79057H60.6187V10H62.1968H63.775V7.79057H62.1968ZM62.1968 10V8.42184H59.9874V10V11.5782H62.1968V10ZM59.9874 10H61.5656V7.79057H59.9874H58.4092V10H59.9874ZM59.9874 7.79057V6.21241H58.8827V7.79057V9.36873H59.9874V7.79057ZM58.8827 7.79057H60.4608V6.68586H58.8827H57.3045V7.79057H58.8827ZM58.8827 6.68586V5.10769H57.778V6.68586V8.26402H58.8827V6.68586ZM57.778 6.68586H56.1998V10H57.778H59.3561V6.68586H57.778ZM57.778 10V8.42184H55.5685V10V11.5782H57.778V10ZM55.5685 10H57.1467V2.267H55.5685H53.9904V10H55.5685ZM57.778 3.37171H56.1998V5.58114H57.778H59.3561V3.37171H57.778ZM57.778 5.58114V7.1593H59.9874V5.58114V4.00298H57.778V5.58114ZM59.9874 5.58114H61.5656V3.37171H59.9874H58.4092V5.58114H59.9874ZM59.9874 3.37171V1.79355H57.778V3.37171V4.94987H59.9874V3.37171ZM63.6992 3.37171V1.79355H62.1211V3.37171H63.6992ZM65.9087 3.37171H67.4868V1.79355H65.9087V3.37171ZM65.9087 4.47643H64.3305V6.05459H65.9087V4.47643ZM67.0134 4.47643H68.5915V2.89826H67.0134V4.47643ZM67.0134 6.68586V8.26402H68.5915V6.68586H67.0134ZM64.804 6.68586H63.2258V8.26402H64.804V6.68586ZM64.804 4.47643H66.3821V2.89826H64.804V4.47643ZM63.6992 4.47643H62.1211V6.05459H63.6992V4.47643ZM63.6992 3.37171V4.94987H65.9087V3.37171V1.79355H63.6992V3.37171ZM65.9087 3.37171H64.3305V4.47643H65.9087H67.4868V3.37171H65.9087ZM65.9087 4.47643V6.05459H67.0134V4.47643V2.89826H65.9087V4.47643ZM67.0134 4.47643H65.4352V6.68586H67.0134H68.5915V4.47643H67.0134ZM67.0134 6.68586V5.10769H64.804V6.68586V8.26402H67.0134V6.68586ZM64.804 6.68586H66.3821V4.47643H64.804H63.2258V6.68586H64.804ZM64.804 4.47643V2.89826H63.6992V4.47643V6.05459H64.804V4.47643ZM63.6992 4.47643H65.2774V3.37171H63.6992H62.1211V4.47643H63.6992ZM72.2276 2.267V0.688832H70.6495V2.267H72.2276ZM78.8559 2.267H80.4341V0.688832H78.8559V2.267ZM78.8559 3.37171V4.94987H80.4341V3.37171H78.8559ZM76.6465 3.37171V1.79355H75.0683V3.37171H76.6465ZM76.6465 10V11.5782H78.2247V10H76.6465ZM74.4371 10H72.8589V11.5782H74.4371V10ZM74.4371 3.37171H76.0152V1.79355H74.4371V3.37171ZM72.2276 3.37171H70.6495V4.94987H72.2276V3.37171ZM72.2276 2.267V3.84516H78.8559V2.267V0.688832H72.2276V2.267ZM78.8559 2.267H77.2778V3.37171H78.8559H80.4341V2.267H78.8559ZM78.8559 3.37171V1.79355H76.6465V3.37171V4.94987H78.8559V3.37171ZM76.6465 3.37171H75.0683V10H76.6465H78.2247V3.37171H76.6465ZM76.6465 10V8.42184H74.4371V10V11.5782H76.6465V10ZM74.4371 10H76.0152V3.37171H74.4371H72.8589V10H74.4371ZM74.4371 3.37171V1.79355H72.2276V3.37171V4.94987H74.4371V3.37171ZM72.2276 3.37171H73.8058V2.267H72.2276H70.6495V3.37171H72.2276ZM81.4631 2.267V0.688832H79.8849V2.267H81.4631ZM85.8819 2.267H87.4601V0.688832H85.8819V2.267ZM85.8819 3.37171H84.3037V4.94987H85.8819V3.37171ZM86.9866 3.37171H88.5648V1.79355H86.9866V3.37171ZM86.9866 8.89529V10.4734H88.5648V8.89529H86.9866ZM85.8819 8.89529V7.31712H84.3037V8.89529H85.8819ZM85.8819 10V11.5782H87.4601V10H85.8819ZM81.4631 10H79.8849V11.5782H81.4631V10ZM81.4631 8.89529H83.0412V7.31712H81.4631V8.89529ZM80.3583 8.89529H78.7802V10.4734H80.3583V8.89529ZM80.3583 3.37171V1.79355H78.7802V3.37171H80.3583ZM81.4631 3.37171V4.94987H83.0412V3.37171H81.4631ZM82.5678 3.37171V1.79355H80.9896V3.37171H82.5678ZM82.5678 8.89529H80.9896V10.4734H82.5678V8.89529ZM84.7772 8.89529V10.4734H86.3554V8.89529H84.7772ZM84.7772 3.37171H86.3554V1.79355H84.7772V3.37171ZM81.4631 2.267V3.84516H85.8819V2.267V0.688832H81.4631V2.267ZM85.8819 2.267H84.3037V3.37171H85.8819H87.4601V2.267H85.8819ZM85.8819 3.37171V4.94987H86.9866V3.37171V1.79355H85.8819V3.37171ZM86.9866 3.37171H85.4085V8.89529H86.9866H88.5648V3.37171H86.9866ZM86.9866 8.89529V7.31712H85.8819V8.89529V10.4734H86.9866V8.89529ZM85.8819 8.89529H84.3037V10H85.8819H87.4601V8.89529H85.8819ZM85.8819 10V8.42184H81.4631V10V11.5782H85.8819V10ZM81.4631 10H83.0412V8.89529H81.4631H79.8849V10H81.4631ZM81.4631 8.89529V7.31712H80.3583V8.89529V10.4734H81.4631V8.89529ZM80.3583 8.89529H81.9365V3.37171H80.3583H78.7802V8.89529H80.3583ZM80.3583 3.37171V4.94987H81.4631V3.37171V1.79355H80.3583V3.37171ZM81.4631 3.37171H83.0412V2.267H81.4631H79.8849V3.37171H81.4631ZM82.5678 3.37171H80.9896V8.89529H82.5678H84.1459V3.37171H82.5678ZM82.5678 8.89529V10.4734H84.7772V8.89529V7.31712H82.5678V8.89529ZM84.7772 8.89529H86.3554V3.37171H84.7772H83.199V8.89529H84.7772ZM84.7772 3.37171V1.79355H82.5678V3.37171V4.94987H84.7772V3.37171ZM92.2009 2.267V0.688832H90.6227V2.267H92.2009ZM97.7245 2.267H99.3026V0.688832H97.7245V2.267ZM97.7245 3.37171H96.1463V4.94987H97.7245V3.37171ZM98.8292 3.37171H100.407V1.79355H98.8292V3.37171ZM98.8292 5.58114V7.1593H100.407V5.58114H98.8292ZM97.7245 5.58114V4.00298H96.1463V5.58114H97.7245ZM97.7245 7.79057H96.1463V9.36873H97.7245V7.79057ZM98.8292 7.79057H100.407V6.21241H98.8292V7.79057ZM98.8292 10V11.5782H100.407V10H98.8292ZM96.6197 10H95.0416V11.5782H96.6197V10ZM96.6197 7.79057H98.1979V6.21241H96.6197V7.79057ZM95.515 7.79057H93.9369V9.36873H95.515V7.79057ZM95.515 6.68586H97.0932V5.10769H95.515V6.68586ZM94.4103 6.68586V5.10769H92.8321V6.68586H94.4103ZM94.4103 10V11.5782H95.9885V10H94.4103ZM92.2009 10H90.6227V11.5782H92.2009V10ZM94.4103 3.37171V1.79355H92.8321V3.37171H94.4103ZM94.4103 5.58114H92.8321V7.1593H94.4103V5.58114ZM96.6197 5.58114V7.1593H98.1979V5.58114H96.6197ZM96.6197 3.37171H98.1979V1.79355H96.6197V3.37171ZM92.2009 2.267V3.84516H97.7245V2.267V0.688832H92.2009V2.267ZM97.7245 2.267H96.1463V3.37171H97.7245H99.3026V2.267H97.7245ZM97.7245 3.37171V4.94987H98.8292V3.37171V1.79355H97.7245V3.37171ZM98.8292 3.37171H97.251V5.58114H98.8292H100.407V3.37171H98.8292ZM98.8292 5.58114V4.00298H97.7245V5.58114V7.1593H98.8292V5.58114ZM97.7245 5.58114H96.1463V7.79057H97.7245H99.3026V5.58114H97.7245ZM97.7245 7.79057V9.36873H98.8292V7.79057V6.21241H97.7245V7.79057ZM98.8292 7.79057H97.251V10H98.8292H100.407V7.79057H98.8292ZM98.8292 10V8.42184H96.6197V10V11.5782H98.8292V10ZM96.6197 10H98.1979V7.79057H96.6197H95.0416V10H96.6197ZM96.6197 7.79057V6.21241H95.515V7.79057V9.36873H96.6197V7.79057ZM95.515 7.79057H97.0932V6.68586H95.515H93.9369V7.79057H95.515ZM95.515 6.68586V5.10769H94.4103V6.68586V8.26402H95.515V6.68586ZM94.4103 6.68586H92.8321V10H94.4103H95.9885V6.68586H94.4103ZM94.4103 10V8.42184H92.2009V10V11.5782H94.4103V10ZM92.2009 10H93.779V2.267H92.2009H90.6227V10H92.2009ZM94.4103 3.37171H92.8321V5.58114H94.4103H95.9885V3.37171H94.4103ZM94.4103 5.58114V7.1593H96.6197V5.58114V4.00298H94.4103V5.58114ZM96.6197 5.58114H98.1979V3.37171H96.6197H95.0416V5.58114H96.6197ZM96.6197 3.37171V1.79355H94.4103V3.37171V4.94987H96.6197V3.37171ZM100.332 2.267V0.688832H98.7534V2.267H100.332ZM106.96 2.267H108.538V0.688832H106.96V2.267ZM106.96 3.37171V4.94987H108.538V3.37171H106.96ZM102.541 3.37171V1.79355H100.963V3.37171H102.541ZM102.541 5.58114H100.963V7.1593H102.541V5.58114ZM105.855 5.58114H107.433V4.00298H105.855V5.58114ZM105.855 6.68586V8.26402H107.433V6.68586H105.855ZM102.541 6.68586V5.10769H100.963V6.68586H102.541ZM102.541 8.89529H100.963V10.4734H102.541V8.89529ZM106.96 8.89529H108.538V7.31712H106.96V8.89529ZM106.96 10V11.5782H108.538V10H106.96ZM100.332 10H98.7534V11.5782H100.332V10ZM100.332 2.267V3.84516H106.96V2.267V0.688832H100.332V2.267ZM106.96 2.267H105.382V3.37171H106.96H108.538V2.267H106.96ZM106.96 3.37171V1.79355H102.541V3.37171V4.94987H106.96V3.37171ZM102.541 3.37171H100.963V5.58114H102.541H104.119V3.37171H102.541ZM102.541 5.58114V7.1593H105.855V5.58114V4.00298H102.541V5.58114ZM105.855 5.58114H104.277V6.68586H105.855H107.433V5.58114H105.855ZM105.855 6.68586V5.10769H102.541V6.68586V8.26402H105.855V6.68586ZM102.541 6.68586H100.963V8.89529H102.541H104.119V6.68586H102.541ZM102.541 8.89529V10.4734H106.96V8.89529V7.31712H102.541V8.89529ZM106.96 8.89529H105.382V10H106.96H108.538V8.89529H106.96ZM106.96 10V8.42184H100.332V10V11.5782H106.96V10ZM100.332 10H101.91V2.267H100.332H98.7534V10H100.332ZM109.567 2.267V0.688832H107.989V2.267H109.567ZM113.986 2.267H115.564V0.688832H113.986V2.267ZM113.986 3.37171H112.408V4.94987H113.986V3.37171ZM115.091 3.37171H116.669V1.79355H115.091V3.37171ZM115.091 4.47643V6.05459H116.669V4.47643H115.091ZM112.881 4.47643H111.303V6.05459H112.881V4.47643ZM112.881 3.37171H114.459V1.79355H112.881V3.37171ZM110.672 3.37171V1.79355H109.094V3.37171H110.672ZM110.672 5.58114H109.094V7.1593H110.672V5.58114ZM113.986 5.58114H115.564V4.00298H113.986V5.58114ZM113.986 6.68586H112.408V8.26402H113.986V6.68586ZM115.091 6.68586H116.669V5.10769H115.091V6.68586ZM115.091 8.89529V10.4734H116.669V8.89529H115.091ZM113.986 8.89529V7.31712H112.408V8.89529H113.986ZM113.986 10V11.5782H115.564V10H113.986ZM109.567 10H107.989V11.5782H109.567V10ZM109.567 8.89529H111.145V7.31712H109.567V8.89529ZM108.462 8.89529H106.884V10.4734H108.462V8.89529ZM108.462 7.79057V6.21241H106.884V7.79057H108.462ZM110.672 7.79057H112.25V6.21241H110.672V7.79057ZM110.672 8.89529H109.094V10.4734H110.672V8.89529ZM112.881 8.89529V10.4734H114.459V8.89529H112.881ZM112.881 6.68586H114.459V5.10769H112.881V6.68586ZM109.567 6.68586H107.989V8.26402H109.567V6.68586ZM109.567 5.58114H111.145V4.00298H109.567V5.58114ZM108.462 5.58114H106.884V7.1593H108.462V5.58114ZM108.462 3.37171V1.79355H106.884V3.37171H108.462ZM109.567 3.37171V4.94987H111.145V3.37171H109.567ZM109.567 2.267V3.84516H113.986V2.267V0.688832H109.567V2.267ZM113.986 2.267H112.408V3.37171H113.986H115.564V2.267H113.986ZM113.986 3.37171V4.94987H115.091V3.37171V1.79355H113.986V3.37171ZM115.091 3.37171H113.512V4.47643H115.091H116.669V3.37171H115.091ZM115.091 4.47643V2.89826H112.881V4.47643V6.05459H115.091V4.47643ZM112.881 4.47643H114.459V3.37171H112.881H111.303V4.47643H112.881ZM112.881 3.37171V1.79355H110.672V3.37171V4.94987H112.881V3.37171ZM110.672 3.37171H109.094V5.58114H110.672H112.25V3.37171H110.672ZM110.672 5.58114V7.1593H113.986V5.58114V4.00298H110.672V5.58114ZM113.986 5.58114H112.408V6.68586H113.986H115.564V5.58114H113.986ZM113.986 6.68586V8.26402H115.091V6.68586V5.10769H113.986V6.68586ZM115.091 6.68586H113.512V8.89529H115.091H116.669V6.68586H115.091ZM115.091 8.89529V7.31712H113.986V8.89529V10.4734H115.091V8.89529ZM113.986 8.89529H112.408V10H113.986H115.564V8.89529H113.986ZM113.986 10V8.42184H109.567V10V11.5782H113.986V10ZM109.567 10H111.145V8.89529H109.567H107.989V10H109.567ZM109.567 8.89529V7.31712H108.462V8.89529V10.4734H109.567V8.89529ZM108.462 8.89529H110.04V7.79057H108.462H106.884V8.89529H108.462ZM108.462 7.79057V9.36873H110.672V7.79057V6.21241H108.462V7.79057ZM110.672 7.79057H109.094V8.89529H110.672H112.25V7.79057H110.672ZM110.672 8.89529V10.4734H112.881V8.89529V7.31712H110.672V8.89529ZM112.881 8.89529H114.459V6.68586H112.881H111.303V8.89529H112.881ZM112.881 6.68586V5.10769H109.567V6.68586V8.26402H112.881V6.68586ZM109.567 6.68586H111.145V5.58114H109.567H107.989V6.68586H109.567ZM109.567 5.58114V4.00298H108.462V5.58114V7.1593H109.567V5.58114ZM108.462 5.58114H110.04V3.37171H108.462H106.884V5.58114H108.462ZM108.462 3.37171V4.94987H109.567V3.37171V1.79355H108.462V3.37171ZM109.567 3.37171H111.145V2.267H109.567H107.989V3.37171H109.567ZM116.593 2.267V0.688832H115.015V2.267H116.593ZM123.221 2.267H124.799V0.688832H123.221V2.267ZM123.221 3.37171V4.94987H124.799V3.37171H123.221ZM121.012 3.37171V1.79355H119.434V3.37171H121.012ZM121.012 10V11.5782H122.59V10H121.012ZM118.802 10H117.224V11.5782H118.802V10ZM118.802 3.37171H120.381V1.79355H118.802V3.37171ZM116.593 3.37171H115.015V4.94987H116.593V3.37171ZM116.593 2.267V3.84516H123.221V2.267V0.688832H116.593V2.267ZM123.221 2.267H121.643V3.37171H123.221H124.799V2.267H123.221ZM123.221 3.37171V1.79355H121.012V3.37171V4.94987H123.221V3.37171ZM121.012 3.37171H119.434V10H121.012H122.59V3.37171H121.012ZM121.012 10V8.42184H118.802V10V11.5782H121.012V10ZM118.802 10H120.381V3.37171H118.802H117.224V10H118.802ZM118.802 3.37171V1.79355H116.593V3.37171V4.94987H118.802V3.37171ZM116.593 3.37171H118.171V2.267H116.593H115.015V3.37171H116.593ZM125.828 2.267V0.688832H124.25V2.267H125.828ZM130.247 2.267H131.825V0.688832H130.247V2.267ZM130.247 3.37171H128.669V4.94987H130.247V3.37171ZM131.352 3.37171H132.93V1.79355H131.352V3.37171ZM131.352 10V11.5782H132.93V10H131.352ZM129.143 10H127.564V11.5782H129.143V10ZM129.143 7.79057H130.721V6.21241H129.143V7.79057ZM126.933 7.79057V6.21241H125.355V7.79057H126.933ZM126.933 10V11.5782H128.511V10H126.933ZM124.724 10H123.146V11.5782H124.724V10ZM124.724 3.37171V1.79355H123.146V3.37171H124.724ZM125.828 3.37171V4.94987H127.407V3.37171H125.828ZM126.933 3.37171V1.79355H125.355V3.37171H126.933ZM126.933 6.68586H125.355V8.26402H126.933V6.68586ZM129.143 6.68586V8.26402H130.721V6.68586H129.143ZM129.143 3.37171H130.721V1.79355H129.143V3.37171ZM125.828 2.267V3.84516H130.247V2.267V0.688832H125.828V2.267ZM130.247 2.267H128.669V3.37171H130.247H131.825V2.267H130.247ZM130.247 3.37171V4.94987H131.352V3.37171V1.79355H130.247V3.37171ZM131.352 3.37171H129.774V10H131.352H132.93V3.37171H131.352ZM131.352 10V8.42184H129.143V10V11.5782H131.352V10ZM129.143 10H130.721V7.79057H129.143H127.564V10H129.143ZM129.143 7.79057V6.21241H126.933V7.79057V9.36873H129.143V7.79057ZM126.933 7.79057H125.355V10H126.933H128.511V7.79057H126.933ZM126.933 10V8.42184H124.724V10V11.5782H126.933V10ZM124.724 10H126.302V3.37171H124.724H123.146V10H124.724ZM124.724 3.37171V4.94987H125.828V3.37171V1.79355H124.724V3.37171ZM125.828 3.37171H127.407V2.267H125.828H124.25V3.37171H125.828ZM126.933 3.37171H125.355V6.68586H126.933H128.511V3.37171H126.933ZM126.933 6.68586V8.26402H129.143V6.68586V5.10769H126.933V6.68586ZM129.143 6.68586H130.721V3.37171H129.143H127.564V6.68586H129.143ZM129.143 3.37171V1.79355H126.933V3.37171V4.94987H129.143V3.37171ZM132.854 2.267V0.688832H131.276V2.267H132.854ZM138.378 2.267H139.956V0.688832H138.378V2.267ZM138.378 3.37171H136.8V4.94987H138.378V3.37171ZM139.483 3.37171H141.061V1.79355H139.483V3.37171ZM139.483 5.58114V7.1593H141.061V5.58114H139.483ZM138.378 5.58114V4.00298H136.8V5.58114H138.378ZM138.378 7.79057H136.8V9.36873H138.378V7.79057ZM139.483 7.79057H141.061V6.21241H139.483V7.79057ZM139.483 10V11.5782H141.061V10H139.483ZM137.273 10H135.695V11.5782H137.273V10ZM137.273 7.79057H138.851V6.21241H137.273V7.79057ZM136.169 7.79057H134.59V9.36873H136.169V7.79057ZM136.169 6.68586H137.747V5.10769H136.169V6.68586ZM135.064 6.68586V5.10769H133.486V6.68586H135.064ZM135.064 10V11.5782H136.642V10H135.064ZM132.854 10H131.276V11.5782H132.854V10ZM135.064 3.37171V1.79355H133.486V3.37171H135.064ZM135.064 5.58114H133.486V7.1593H135.064V5.58114ZM137.273 5.58114V7.1593H138.851V5.58114H137.273ZM137.273 3.37171H138.851V1.79355H137.273V3.37171ZM132.854 2.267V3.84516H138.378V2.267V0.688832H132.854V2.267ZM138.378 2.267H136.8V3.37171H138.378H139.956V2.267H138.378ZM138.378 3.37171V4.94987H139.483V3.37171V1.79355H138.378V3.37171ZM139.483 3.37171H137.905V5.58114H139.483H141.061V3.37171H139.483ZM139.483 5.58114V4.00298H138.378V5.58114V7.1593H139.483V5.58114ZM138.378 5.58114H136.8V7.79057H138.378H139.956V5.58114H138.378ZM138.378 7.79057V9.36873H139.483V7.79057V6.21241H138.378V7.79057ZM139.483 7.79057H137.905V10H139.483H141.061V7.79057H139.483ZM139.483 10V8.42184H137.273V10V11.5782H139.483V10ZM137.273 10H138.851V7.79057H137.273H135.695V10H137.273ZM137.273 7.79057V6.21241H136.169V7.79057V9.36873H137.273V7.79057ZM136.169 7.79057H137.747V6.68586H136.169H134.59V7.79057H136.169ZM136.169 6.68586V5.10769H135.064V6.68586V8.26402H136.169V6.68586ZM135.064 6.68586H133.486V10H135.064H136.642V6.68586H135.064ZM135.064 10V8.42184H132.854V10V11.5782H135.064V10ZM132.854 10H134.433V2.267H132.854H131.276V10H132.854ZM135.064 3.37171H133.486V5.58114H135.064H136.642V3.37171H135.064ZM135.064 5.58114V7.1593H137.273V5.58114V4.00298H135.064V5.58114ZM137.273 5.58114H138.851V3.37171H137.273H135.695V5.58114H137.273ZM137.273 3.37171V1.79355H135.064V3.37171V4.94987H137.273V3.37171ZM140.985 2.267V0.688832H139.407V2.267H140.985ZM147.613 2.267H149.192V0.688832H147.613V2.267ZM147.613 3.37171V4.94987H149.192V3.37171H147.613ZM145.404 3.37171V1.79355H143.826V3.37171H145.404ZM145.404 10V11.5782H146.982V10H145.404ZM143.195 10H141.616V11.5782H143.195V10ZM143.195 3.37171H144.773V1.79355H143.195V3.37171ZM140.985 3.37171H139.407V4.94987H140.985V3.37171ZM140.985 2.267V3.84516H147.613V2.267V0.688832H140.985V2.267ZM147.613 2.267H146.035V3.37171H147.613H149.192V2.267H147.613ZM147.613 3.37171V1.79355H145.404V3.37171V4.94987H147.613V3.37171ZM145.404 3.37171H143.826V10H145.404H146.982V3.37171H145.404ZM145.404 10V8.42184H143.195V10V11.5782H145.404V10ZM143.195 10H144.773V3.37171H143.195H141.616V10H143.195ZM143.195 3.37171V1.79355H140.985V3.37171V4.94987H143.195V3.37171ZM140.985 3.37171H142.563V2.267H140.985H139.407V3.37171H140.985Z" fill="black" mask="url(#path-1-outside-1_573_1855)"/>
<mask id="path-3-outside-2_573_1855" maskUnits="userSpaceOnUse" x="6" y="1" width="142" height="10" fill="black">
<rect fill="white" x="6" y="1" width="142" height="10"/>
<path d="M6.38663 2.267H11.9102V3.37171H13.0149V5.58114H11.9102V6.68586H8.59606V10H6.38663V2.267ZM8.59606 3.37171V5.58114H10.8055V3.37171H8.59606ZM14.5173 2.267H20.0409V3.37171H21.1456V5.58114H20.0409V7.79057H21.1456V10H18.9362V7.79057H17.8315V6.68586H16.7268V10H14.5173V2.267ZM16.7268 3.37171V5.58114H18.9362V3.37171H16.7268ZM22.648 2.267H29.2763V3.37171H24.8575V5.58114H28.1716V6.68586H24.8575V8.89529H29.2763V10H22.648V2.267ZM31.8834 2.267H36.3023V3.37171H37.407V4.47643H35.1976V3.37171H32.9882V5.58114H36.3023V6.68586H37.407V8.89529H36.3023V10H31.8834V8.89529H30.7787V7.79057H32.9882V8.89529H35.1976V6.68586H31.8834V5.58114H30.7787V3.37171H31.8834V2.267ZM40.0141 2.267H44.433V3.37171H45.5377V4.47643H43.3283V3.37171H41.1189V5.58114H44.433V6.68586H45.5377V8.89529H44.433V10H40.0141V8.89529H38.9094V7.79057H41.1189V8.89529H43.3283V6.68586H40.0141V5.58114H38.9094V3.37171H40.0141V2.267ZM50.752 3.37171H52.9614V5.58114H54.0661V6.68586H51.8567V5.58114H50.752V3.37171ZM55.5685 2.267H61.0921V3.37171H62.1968V5.58114H61.0921V7.79057H62.1968V10H59.9874V7.79057H58.8827V6.68586H57.778V10H55.5685V2.267ZM57.778 3.37171V5.58114H59.9874V3.37171H57.778ZM63.6992 3.37171H65.9087V4.47643H67.0134V6.68586H64.804V4.47643H63.6992V3.37171ZM72.2276 2.267H78.8559V3.37171H76.6465V10H74.4371V3.37171H72.2276V2.267ZM81.4631 2.267H85.8819V3.37171H86.9866V8.89529H85.8819V10H81.4631V8.89529H80.3583V3.37171H81.4631V2.267ZM82.5678 3.37171V8.89529H84.7772V3.37171H82.5678ZM92.2009 2.267H97.7245V3.37171H98.8292V5.58114H97.7245V7.79057H98.8292V10H96.6197V7.79057H95.515V6.68586H94.4103V10H92.2009V2.267ZM94.4103 3.37171V5.58114H96.6197V3.37171H94.4103ZM100.332 2.267H106.96V3.37171H102.541V5.58114H105.855V6.68586H102.541V8.89529H106.96V10H100.332V2.267ZM109.567 2.267H113.986V3.37171H115.091V4.47643H112.881V3.37171H110.672V5.58114H113.986V6.68586H115.091V8.89529H113.986V10H109.567V8.89529H108.462V7.79057H110.672V8.89529H112.881V6.68586H109.567V5.58114H108.462V3.37171H109.567V2.267ZM116.593 2.267H123.221V3.37171H121.012V10H118.802V3.37171H116.593V2.267ZM125.828 2.267H130.247V3.37171H131.352V10H129.143V7.79057H126.933V10H124.724V3.37171H125.828V2.267ZM126.933 3.37171V6.68586H129.143V3.37171H126.933ZM132.854 2.267H138.378V3.37171H139.483V5.58114H138.378V7.79057H139.483V10H137.273V7.79057H136.169V6.68586H135.064V10H132.854V2.267ZM135.064 3.37171V5.58114H137.273V3.37171H135.064ZM140.985 2.267H147.613V3.37171H145.404V10H143.195V3.37171H140.985V2.267Z"/>
</mask>
<g filter="url(#filter0_i_573_1855)">
<path d="M6.38663 2.267H11.9102V3.37171H13.0149V5.58114H11.9102V6.68586H8.59606V10H6.38663V2.267ZM8.59606 3.37171V5.58114H10.8055V3.37171H8.59606ZM14.5173 2.267H20.0409V3.37171H21.1456V5.58114H20.0409V7.79057H21.1456V10H18.9362V7.79057H17.8315V6.68586H16.7268V10H14.5173V2.267ZM16.7268 3.37171V5.58114H18.9362V3.37171H16.7268ZM22.648 2.267H29.2763V3.37171H24.8575V5.58114H28.1716V6.68586H24.8575V8.89529H29.2763V10H22.648V2.267ZM31.8834 2.267H36.3023V3.37171H37.407V4.47643H35.1976V3.37171H32.9882V5.58114H36.3023V6.68586H37.407V8.89529H36.3023V10H31.8834V8.89529H30.7787V7.79057H32.9882V8.89529H35.1976V6.68586H31.8834V5.58114H30.7787V3.37171H31.8834V2.267ZM40.0141 2.267H44.433V3.37171H45.5377V4.47643H43.3283V3.37171H41.1189V5.58114H44.433V6.68586H45.5377V8.89529H44.433V10H40.0141V8.89529H38.9094V7.79057H41.1189V8.89529H43.3283V6.68586H40.0141V5.58114H38.9094V3.37171H40.0141V2.267ZM50.752 3.37171H52.9614V5.58114H54.0661V6.68586H51.8567V5.58114H50.752V3.37171ZM55.5685 2.267H61.0921V3.37171H62.1968V5.58114H61.0921V7.79057H62.1968V10H59.9874V7.79057H58.8827V6.68586H57.778V10H55.5685V2.267ZM57.778 3.37171V5.58114H59.9874V3.37171H57.778ZM63.6992 3.37171H65.9087V4.47643H67.0134V6.68586H64.804V4.47643H63.6992V3.37171ZM72.2276 2.267H78.8559V3.37171H76.6465V10H74.4371V3.37171H72.2276V2.267ZM81.4631 2.267H85.8819V3.37171H86.9866V8.89529H85.8819V10H81.4631V8.89529H80.3583V3.37171H81.4631V2.267ZM82.5678 3.37171V8.89529H84.7772V3.37171H82.5678ZM92.2009 2.267H97.7245V3.37171H98.8292V5.58114H97.7245V7.79057H98.8292V10H96.6197V7.79057H95.515V6.68586H94.4103V10H92.2009V2.267ZM94.4103 3.37171V5.58114H96.6197V3.37171H94.4103ZM100.332 2.267H106.96V3.37171H102.541V5.58114H105.855V6.68586H102.541V8.89529H106.96V10H100.332V2.267ZM109.567 2.267H113.986V3.37171H115.091V4.47643H112.881V3.37171H110.672V5.58114H113.986V6.68586H115.091V8.89529H113.986V10H109.567V8.89529H108.462V7.79057H110.672V8.89529H112.881V6.68586H109.567V5.58114H108.462V3.37171H109.567V2.267ZM116.593 2.267H123.221V3.37171H121.012V10H118.802V3.37171H116.593V2.267ZM125.828 2.267H130.247V3.37171H131.352V10H129.143V7.79057H126.933V10H124.724V3.37171H125.828V2.267ZM126.933 3.37171V6.68586H129.143V3.37171H126.933ZM132.854 2.267H138.378V3.37171H139.483V5.58114H138.378V7.79057H139.483V10H137.273V7.79057H136.169V6.68586H135.064V10H132.854V2.267ZM135.064 3.37171V5.58114H137.273V3.37171H135.064ZM140.985 2.267H147.613V3.37171H145.404V10H143.195V3.37171H140.985V2.267Z" fill="#C0C0C0"/>
</g>
<path d="M6.38663 2.267V1.88824H6.00787V2.267H6.38663ZM11.9102 2.267H12.289V1.88824H11.9102V2.267ZM11.9102 3.37171H11.5314V3.75047H11.9102V3.37171ZM13.0149 3.37171H13.3937V2.99295H13.0149V3.37171ZM13.0149 5.58114V5.9599H13.3937V5.58114H13.0149ZM11.9102 5.58114V5.20238H11.5314V5.58114H11.9102ZM11.9102 6.68586V7.06461H12.289V6.68586H11.9102ZM8.59606 6.68586V6.3071H8.2173V6.68586H8.59606ZM8.59606 10V10.3788H8.97482V10H8.59606ZM6.38663 10H6.00787V10.3788H6.38663V10ZM8.59606 3.37171V2.99295H8.2173V3.37171H8.59606ZM8.59606 5.58114H8.2173V5.9599H8.59606V5.58114ZM10.8055 5.58114V5.9599H11.1842V5.58114H10.8055ZM10.8055 3.37171H11.1842V2.99295H10.8055V3.37171ZM6.38663 2.267V2.64576H11.9102V2.267V1.88824H6.38663V2.267ZM11.9102 2.267H11.5314V3.37171H11.9102H12.289V2.267H11.9102ZM11.9102 3.37171V3.75047H13.0149V3.37171V2.99295H11.9102V3.37171ZM13.0149 3.37171H12.6362V5.58114H13.0149H13.3937V3.37171H13.0149ZM13.0149 5.58114V5.20238H11.9102V5.58114V5.9599H13.0149V5.58114ZM11.9102 5.58114H11.5314V6.68586H11.9102H12.289V5.58114H11.9102ZM11.9102 6.68586V6.3071H8.59606V6.68586V7.06461H11.9102V6.68586ZM8.59606 6.68586H8.2173V10H8.59606H8.97482V6.68586H8.59606ZM8.59606 10V9.62124H6.38663V10V10.3788H8.59606V10ZM6.38663 10H6.76539V2.267H6.38663H6.00787V10H6.38663ZM8.59606 3.37171H8.2173V5.58114H8.59606H8.97482V3.37171H8.59606ZM8.59606 5.58114V5.9599H10.8055V5.58114V5.20238H8.59606V5.58114ZM10.8055 5.58114H11.1842V3.37171H10.8055H10.4267V5.58114H10.8055ZM10.8055 3.37171V2.99295H8.59606V3.37171V3.75047H10.8055V3.37171ZM14.5173 2.267V1.88824H14.1386V2.267H14.5173ZM20.0409 2.267H20.4197V1.88824H20.0409V2.267ZM20.0409 3.37171H19.6621V3.75047H20.0409V3.37171ZM21.1456 3.37171H21.5244V2.99295H21.1456V3.37171ZM21.1456 5.58114V5.9599H21.5244V5.58114H21.1456ZM20.0409 5.58114V5.20238H19.6621V5.58114H20.0409ZM20.0409 7.79057H19.6621V8.16933H20.0409V7.79057ZM21.1456 7.79057H21.5244V7.41181H21.1456V7.79057ZM21.1456 10V10.3788H21.5244V10H21.1456ZM18.9362 10H18.5574V10.3788H18.9362V10ZM18.9362 7.79057H19.3149V7.41181H18.9362V7.79057ZM17.8315 7.79057H17.4527V8.16933H17.8315V7.79057ZM17.8315 6.68586H18.2102V6.3071H17.8315V6.68586ZM16.7268 6.68586V6.3071H16.348V6.68586H16.7268ZM16.7268 10V10.3788H17.1055V10H16.7268ZM14.5173 10H14.1386V10.3788H14.5173V10ZM16.7268 3.37171V2.99295H16.348V3.37171H16.7268ZM16.7268 5.58114H16.348V5.9599H16.7268V5.58114ZM18.9362 5.58114V5.9599H19.3149V5.58114H18.9362ZM18.9362 3.37171H19.3149V2.99295H18.9362V3.37171ZM14.5173 2.267V2.64576H20.0409V2.267V1.88824H14.5173V2.267ZM20.0409 2.267H19.6621V3.37171H20.0409H20.4197V2.267H20.0409ZM20.0409 3.37171V3.75047H21.1456V3.37171V2.99295H20.0409V3.37171ZM21.1456 3.37171H20.7669V5.58114H21.1456H21.5244V3.37171H21.1456ZM21.1456 5.58114V5.20238H20.0409V5.58114V5.9599H21.1456V5.58114ZM20.0409 5.58114H19.6621V7.79057H20.0409H20.4197V5.58114H20.0409ZM20.0409 7.79057V8.16933H21.1456V7.79057V7.41181H20.0409V7.79057ZM21.1456 7.79057H20.7669V10H21.1456H21.5244V7.79057H21.1456ZM21.1456 10V9.62124H18.9362V10V10.3788H21.1456V10ZM18.9362 10H19.3149V7.79057H18.9362H18.5574V10H18.9362ZM18.9362 7.79057V7.41181H17.8315V7.79057V8.16933H18.9362V7.79057ZM17.8315 7.79057H18.2102V6.68586H17.8315H17.4527V7.79057H17.8315ZM17.8315 6.68586V6.3071H16.7268V6.68586V7.06461H17.8315V6.68586ZM16.7268 6.68586H16.348V10H16.7268H17.1055V6.68586H16.7268ZM16.7268 10V9.62124H14.5173V10V10.3788H16.7268V10ZM14.5173 10H14.8961V2.267H14.5173H14.1386V10H14.5173ZM16.7268 3.37171H16.348V5.58114H16.7268H17.1055V3.37171H16.7268ZM16.7268 5.58114V5.9599H18.9362V5.58114V5.20238H16.7268V5.58114ZM18.9362 5.58114H19.3149V3.37171H18.9362H18.5574V5.58114H18.9362ZM18.9362 3.37171V2.99295H16.7268V3.37171V3.75047H18.9362V3.37171ZM22.648 2.267V1.88824H22.2693V2.267H22.648ZM29.2763 2.267H29.6551V1.88824H29.2763V2.267ZM29.2763 3.37171V3.75047H29.6551V3.37171H29.2763ZM24.8575 3.37171V2.99295H24.4787V3.37171H24.8575ZM24.8575 5.58114H24.4787V5.9599H24.8575V5.58114ZM28.1716 5.58114H28.5504V5.20238H28.1716V5.58114ZM28.1716 6.68586V7.06461H28.5504V6.68586H28.1716ZM24.8575 6.68586V6.3071H24.4787V6.68586H24.8575ZM24.8575 8.89529H24.4787V9.27404H24.8575V8.89529ZM29.2763 8.89529H29.6551V8.51653H29.2763V8.89529ZM29.2763 10V10.3788H29.6551V10H29.2763ZM22.648 10H22.2693V10.3788H22.648V10ZM22.648 2.267V2.64576H29.2763V2.267V1.88824H22.648V2.267ZM29.2763 2.267H28.8976V3.37171H29.2763H29.6551V2.267H29.2763ZM29.2763 3.37171V2.99295H24.8575V3.37171V3.75047H29.2763V3.37171ZM24.8575 3.37171H24.4787V5.58114H24.8575H25.2362V3.37171H24.8575ZM24.8575 5.58114V5.9599H28.1716V5.58114V5.20238H24.8575V5.58114ZM28.1716 5.58114H27.7928V6.68586H28.1716H28.5504V5.58114H28.1716ZM28.1716 6.68586V6.3071H24.8575V6.68586V7.06461H28.1716V6.68586ZM24.8575 6.68586H24.4787V8.89529H24.8575H25.2362V6.68586H24.8575ZM24.8575 8.89529V9.27404H29.2763V8.89529V8.51653H24.8575V8.89529ZM29.2763 8.89529H28.8976V10H29.2763H29.6551V8.89529H29.2763ZM29.2763 10V9.62124H22.648V10V10.3788H29.2763V10ZM22.648 10H23.0268V2.267H22.648H22.2693V10H22.648ZM31.8834 2.267V1.88824H31.5047V2.267H31.8834ZM36.3023 2.267H36.6811V1.88824H36.3023V2.267ZM36.3023 3.37171H35.9235V3.75047H36.3023V3.37171ZM37.407 3.37171H37.7858V2.99295H37.407V3.37171ZM37.407 4.47643V4.85519H37.7858V4.47643H37.407ZM35.1976 4.47643H34.8188V4.85519H35.1976V4.47643ZM35.1976 3.37171H35.5764V2.99295H35.1976V3.37171ZM32.9882 3.37171V2.99295H32.6094V3.37171H32.9882ZM32.9882 5.58114H32.6094V5.9599H32.9882V5.58114ZM36.3023 5.58114H36.6811V5.20238H36.3023V5.58114ZM36.3023 6.68586H35.9235V7.06461H36.3023V6.68586ZM37.407 6.68586H37.7858V6.3071H37.407V6.68586ZM37.407 8.89529V9.27404H37.7858V8.89529H37.407ZM36.3023 8.89529V8.51653H35.9235V8.89529H36.3023ZM36.3023 10V10.3788H36.6811V10H36.3023ZM31.8834 10H31.5047V10.3788H31.8834V10ZM31.8834 8.89529H32.2622V8.51653H31.8834V8.89529ZM30.7787 8.89529H30.4V9.27404H30.7787V8.89529ZM30.7787 7.79057V7.41181H30.4V7.79057H30.7787ZM32.9882 7.79057H33.3669V7.41181H32.9882V7.79057ZM32.9882 8.89529H32.6094V9.27404H32.9882V8.89529ZM35.1976 8.89529V9.27404H35.5764V8.89529H35.1976ZM35.1976 6.68586H35.5764V6.3071H35.1976V6.68586ZM31.8834 6.68586H31.5047V7.06461H31.8834V6.68586ZM31.8834 5.58114H32.2622V5.20238H31.8834V5.58114ZM30.7787 5.58114H30.4V5.9599H30.7787V5.58114ZM30.7787 3.37171V2.99295H30.4V3.37171H30.7787ZM31.8834 3.37171V3.75047H32.2622V3.37171H31.8834ZM31.8834 2.267V2.64576H36.3023V2.267V1.88824H31.8834V2.267ZM36.3023 2.267H35.9235V3.37171H36.3023H36.6811V2.267H36.3023ZM36.3023 3.37171V3.75047H37.407V3.37171V2.99295H36.3023V3.37171ZM37.407 3.37171H37.0283V4.47643H37.407H37.7858V3.37171H37.407ZM37.407 4.47643V4.09767H35.1976V4.47643V4.85519H37.407V4.47643ZM35.1976 4.47643H35.5764V3.37171H35.1976H34.8188V4.47643H35.1976ZM35.1976 3.37171V2.99295H32.9882V3.37171V3.75047H35.1976V3.37171ZM32.9882 3.37171H32.6094V5.58114H32.9882H33.3669V3.37171H32.9882ZM32.9882 5.58114V5.9599H36.3023V5.58114V5.20238H32.9882V5.58114ZM36.3023 5.58114H35.9235V6.68586H36.3023H36.6811V5.58114H36.3023ZM36.3023 6.68586V7.06461H37.407V6.68586V6.3071H36.3023V6.68586ZM37.407 6.68586H37.0283V8.89529H37.407H37.7858V6.68586H37.407ZM37.407 8.89529V8.51653H36.3023V8.89529V9.27404H37.407V8.89529ZM36.3023 8.89529H35.9235V10H36.3023H36.6811V8.89529H36.3023ZM36.3023 10V9.62124H31.8834V10V10.3788H36.3023V10ZM31.8834 10H32.2622V8.89529H31.8834H31.5047V10H31.8834ZM31.8834 8.89529V8.51653H30.7787V8.89529V9.27404H31.8834V8.89529ZM30.7787 8.89529H31.1575V7.79057H30.7787H30.4V8.89529H30.7787ZM30.7787 7.79057V8.16933H32.9882V7.79057V7.41181H30.7787V7.79057ZM32.9882 7.79057H32.6094V8.89529H32.9882H33.3669V7.79057H32.9882ZM32.9882 8.89529V9.27404H35.1976V8.89529V8.51653H32.9882V8.89529ZM35.1976 8.89529H35.5764V6.68586H35.1976H34.8188V8.89529H35.1976ZM35.1976 6.68586V6.3071H31.8834V6.68586V7.06461H35.1976V6.68586ZM31.8834 6.68586H32.2622V5.58114H31.8834H31.5047V6.68586H31.8834ZM31.8834 5.58114V5.20238H30.7787V5.58114V5.9599H31.8834V5.58114ZM30.7787 5.58114H31.1575V3.37171H30.7787H30.4V5.58114H30.7787ZM30.7787 3.37171V3.75047H31.8834V3.37171V2.99295H30.7787V3.37171ZM31.8834 3.37171H32.2622V2.267H31.8834H31.5047V3.37171H31.8834ZM40.0141 2.267V1.88824H39.6354V2.267H40.0141ZM44.433 2.267H44.8118V1.88824H44.433V2.267ZM44.433 3.37171H44.0542V3.75047H44.433V3.37171ZM45.5377 3.37171H45.9165V2.99295H45.5377V3.37171ZM45.5377 4.47643V4.85519H45.9165V4.47643H45.5377ZM43.3283 4.47643H42.9495V4.85519H43.3283V4.47643ZM43.3283 3.37171H43.7071V2.99295H43.3283V3.37171ZM41.1189 3.37171V2.99295H40.7401V3.37171H41.1189ZM41.1189 5.58114H40.7401V5.9599H41.1189V5.58114ZM44.433 5.58114H44.8118V5.20238H44.433V5.58114ZM44.433 6.68586H44.0542V7.06461H44.433V6.68586ZM45.5377 6.68586H45.9165V6.3071H45.5377V6.68586ZM45.5377 8.89529V9.27404H45.9165V8.89529H45.5377ZM44.433 8.89529V8.51653H44.0542V8.89529H44.433ZM44.433 10V10.3788H44.8118V10H44.433ZM40.0141 10H39.6354V10.3788H40.0141V10ZM40.0141 8.89529H40.3929V8.51653H40.0141V8.89529ZM38.9094 8.89529H38.5307V9.27404H38.9094V8.89529ZM38.9094 7.79057V7.41181H38.5307V7.79057H38.9094ZM41.1189 7.79057H41.4976V7.41181H41.1189V7.79057ZM41.1189 8.89529H40.7401V9.27404H41.1189V8.89529ZM43.3283 8.89529V9.27404H43.7071V8.89529H43.3283ZM43.3283 6.68586H43.7071V6.3071H43.3283V6.68586ZM40.0141 6.68586H39.6354V7.06461H40.0141V6.68586ZM40.0141 5.58114H40.3929V5.20238H40.0141V5.58114ZM38.9094 5.58114H38.5307V5.9599H38.9094V5.58114ZM38.9094 3.37171V2.99295H38.5307V3.37171H38.9094ZM40.0141 3.37171V3.75047H40.3929V3.37171H40.0141ZM40.0141 2.267V2.64576H44.433V2.267V1.88824H40.0141V2.267ZM44.433 2.267H44.0542V3.37171H44.433H44.8118V2.267H44.433ZM44.433 3.37171V3.75047H45.5377V3.37171V2.99295H44.433V3.37171ZM45.5377 3.37171H45.159V4.47643H45.5377H45.9165V3.37171H45.5377ZM45.5377 4.47643V4.09767H43.3283V4.47643V4.85519H45.5377V4.47643ZM43.3283 4.47643H43.7071V3.37171H43.3283H42.9495V4.47643H43.3283ZM43.3283 3.37171V2.99295H41.1189V3.37171V3.75047H43.3283V3.37171ZM41.1189 3.37171H40.7401V5.58114H41.1189H41.4976V3.37171H41.1189ZM41.1189 5.58114V5.9599H44.433V5.58114V5.20238H41.1189V5.58114ZM44.433 5.58114H44.0542V6.68586H44.433H44.8118V5.58114H44.433ZM44.433 6.68586V7.06461H45.5377V6.68586V6.3071H44.433V6.68586ZM45.5377 6.68586H45.159V8.89529H45.5377H45.9165V6.68586H45.5377ZM45.5377 8.89529V8.51653H44.433V8.89529V9.27404H45.5377V8.89529ZM44.433 8.89529H44.0542V10H44.433H44.8118V8.89529H44.433ZM44.433 10V9.62124H40.0141V10V10.3788H44.433V10ZM40.0141 10H40.3929V8.89529H40.0141H39.6354V10H40.0141ZM40.0141 8.89529V8.51653H38.9094V8.89529V9.27404H40.0141V8.89529ZM38.9094 8.89529H39.2882V7.79057H38.9094H38.5307V8.89529H38.9094ZM38.9094 7.79057V8.16933H41.1189V7.79057V7.41181H38.9094V7.79057ZM41.1189 7.79057H40.7401V8.89529H41.1189H41.4976V7.79057H41.1189ZM41.1189 8.89529V9.27404H43.3283V8.89529V8.51653H41.1189V8.89529ZM43.3283 8.89529H43.7071V6.68586H43.3283H42.9495V8.89529H43.3283ZM43.3283 6.68586V6.3071H40.0141V6.68586V7.06461H43.3283V6.68586ZM40.0141 6.68586H40.3929V5.58114H40.0141H39.6354V6.68586H40.0141ZM40.0141 5.58114V5.20238H38.9094V5.58114V5.9599H40.0141V5.58114ZM38.9094 5.58114H39.2882V3.37171H38.9094H38.5307V5.58114H38.9094ZM38.9094 3.37171V3.75047H40.0141V3.37171V2.99295H38.9094V3.37171ZM40.0141 3.37171H40.3929V2.267H40.0141H39.6354V3.37171H40.0141ZM50.752 3.37171V2.99295H50.3732V3.37171H50.752ZM52.9614 3.37171H53.3402V2.99295H52.9614V3.37171ZM52.9614 5.58114H52.5826V5.9599H52.9614V5.58114ZM54.0661 5.58114H54.4449V5.20238H54.0661V5.58114ZM54.0661 6.68586V7.06461H54.4449V6.68586H54.0661ZM51.8567 6.68586H51.4779V7.06461H51.8567V6.68586ZM51.8567 5.58114H52.2355V5.20238H51.8567V5.58114ZM50.752 5.58114H50.3732V5.9599H50.752V5.58114ZM50.752 3.37171V3.75047H52.9614V3.37171V2.99295H50.752V3.37171ZM52.9614 3.37171H52.5826V5.58114H52.9614H53.3402V3.37171H52.9614ZM52.9614 5.58114V5.9599H54.0661V5.58114V5.20238H52.9614V5.58114ZM54.0661 5.58114H53.6874V6.68586H54.0661H54.4449V5.58114H54.0661ZM54.0661 6.68586V6.3071H51.8567V6.68586V7.06461H54.0661V6.68586ZM51.8567 6.68586H52.2355V5.58114H51.8567H51.4779V6.68586H51.8567ZM51.8567 5.58114V5.20238H50.752V5.58114V5.9599H51.8567V5.58114ZM50.752 5.58114H51.1307V3.37171H50.752H50.3732V5.58114H50.752ZM55.5685 2.267V1.88824H55.1898V2.267H55.5685ZM61.0921 2.267H61.4709V1.88824H61.0921V2.267ZM61.0921 3.37171H60.7134V3.75047H61.0921V3.37171ZM62.1968 3.37171H62.5756V2.99295H62.1968V3.37171ZM62.1968 5.58114V5.9599H62.5756V5.58114H62.1968ZM61.0921 5.58114V5.20238H60.7134V5.58114H61.0921ZM61.0921 7.79057H60.7134V8.16933H61.0921V7.79057ZM62.1968 7.79057H62.5756V7.41181H62.1968V7.79057ZM62.1968 10V10.3788H62.5756V10H62.1968ZM59.9874 10H59.6086V10.3788H59.9874V10ZM59.9874 7.79057H60.3662V7.41181H59.9874V7.79057ZM58.8827 7.79057H58.5039V8.16933H58.8827V7.79057ZM58.8827 6.68586H59.2614V6.3071H58.8827V6.68586ZM57.778 6.68586V6.3071H57.3992V6.68586H57.778ZM57.778 10V10.3788H58.1567V10H57.778ZM55.5685 10H55.1898V10.3788H55.5685V10ZM57.778 3.37171V2.99295H57.3992V3.37171H57.778ZM57.778 5.58114H57.3992V5.9599H57.778V5.58114ZM59.9874 5.58114V5.9599H60.3662V5.58114H59.9874ZM59.9874 3.37171H60.3662V2.99295H59.9874V3.37171ZM55.5685 2.267V2.64576H61.0921V2.267V1.88824H55.5685V2.267ZM61.0921 2.267H60.7134V3.37171H61.0921H61.4709V2.267H61.0921ZM61.0921 3.37171V3.75047H62.1968V3.37171V2.99295H61.0921V3.37171ZM62.1968 3.37171H61.8181V5.58114H62.1968H62.5756V3.37171H62.1968ZM62.1968 5.58114V5.20238H61.0921V5.58114V5.9599H62.1968V5.58114ZM61.0921 5.58114H60.7134V7.79057H61.0921H61.4709V5.58114H61.0921ZM61.0921 7.79057V8.16933H62.1968V7.79057V7.41181H61.0921V7.79057ZM62.1968 7.79057H61.8181V10H62.1968H62.5756V7.79057H62.1968ZM62.1968 10V9.62124H59.9874V10V10.3788H62.1968V10ZM59.9874 10H60.3662V7.79057H59.9874H59.6086V10H59.9874ZM59.9874 7.79057V7.41181H58.8827V7.79057V8.16933H59.9874V7.79057ZM58.8827 7.79057H59.2614V6.68586H58.8827H58.5039V7.79057H58.8827ZM58.8827 6.68586V6.3071H57.778V6.68586V7.06461H58.8827V6.68586ZM57.778 6.68586H57.3992V10H57.778H58.1567V6.68586H57.778ZM57.778 10V9.62124H55.5685V10V10.3788H57.778V10ZM55.5685 10H55.9473V2.267H55.5685H55.1898V10H55.5685ZM57.778 3.37171H57.3992V5.58114H57.778H58.1567V3.37171H57.778ZM57.778 5.58114V5.9599H59.9874V5.58114V5.20238H57.778V5.58114ZM59.9874 5.58114H60.3662V3.37171H59.9874H59.6086V5.58114H59.9874ZM59.9874 3.37171V2.99295H57.778V3.37171V3.75047H59.9874V3.37171ZM63.6992 3.37171V2.99295H63.3205V3.37171H63.6992ZM65.9087 3.37171H66.2874V2.99295H65.9087V3.37171ZM65.9087 4.47643H65.5299V4.85519H65.9087V4.47643ZM67.0134 4.47643H67.3921V4.09767H67.0134V4.47643ZM67.0134 6.68586V7.06461H67.3921V6.68586H67.0134ZM64.804 6.68586H64.4252V7.06461H64.804V6.68586ZM64.804 4.47643H65.1827V4.09767H64.804V4.47643ZM63.6992 4.47643H63.3205V4.85519H63.6992V4.47643ZM63.6992 3.37171V3.75047H65.9087V3.37171V2.99295H63.6992V3.37171ZM65.9087 3.37171H65.5299V4.47643H65.9087H66.2874V3.37171H65.9087ZM65.9087 4.47643V4.85519H67.0134V4.47643V4.09767H65.9087V4.47643ZM67.0134 4.47643H66.6346V6.68586H67.0134H67.3921V4.47643H67.0134ZM67.0134 6.68586V6.3071H64.804V6.68586V7.06461H67.0134V6.68586ZM64.804 6.68586H65.1827V4.47643H64.804H64.4252V6.68586H64.804ZM64.804 4.47643V4.09767H63.6992V4.47643V4.85519H64.804V4.47643ZM63.6992 4.47643H64.078V3.37171H63.6992H63.3205V4.47643H63.6992ZM72.2276 2.267V1.88824H71.8489V2.267H72.2276ZM78.8559 2.267H79.2347V1.88824H78.8559V2.267ZM78.8559 3.37171V3.75047H79.2347V3.37171H78.8559ZM76.6465 3.37171V2.99295H76.2677V3.37171H76.6465ZM76.6465 10V10.3788H77.0253V10H76.6465ZM74.4371 10H74.0583V10.3788H74.4371V10ZM74.4371 3.37171H74.8158V2.99295H74.4371V3.37171ZM72.2276 3.37171H71.8489V3.75047H72.2276V3.37171ZM72.2276 2.267V2.64576H78.8559V2.267V1.88824H72.2276V2.267ZM78.8559 2.267H78.4772V3.37171H78.8559H79.2347V2.267H78.8559ZM78.8559 3.37171V2.99295H76.6465V3.37171V3.75047H78.8559V3.37171ZM76.6465 3.37171H76.2677V10H76.6465H77.0253V3.37171H76.6465ZM76.6465 10V9.62124H74.4371V10V10.3788H76.6465V10ZM74.4371 10H74.8158V3.37171H74.4371H74.0583V10H74.4371ZM74.4371 3.37171V2.99295H72.2276V3.37171V3.75047H74.4371V3.37171ZM72.2276 3.37171H72.6064V2.267H72.2276H71.8489V3.37171H72.2276ZM81.4631 2.267V1.88824H81.0843V2.267H81.4631ZM85.8819 2.267H86.2607V1.88824H85.8819V2.267ZM85.8819 3.37171H85.5032V3.75047H85.8819V3.37171ZM86.9866 3.37171H87.3654V2.99295H86.9866V3.37171ZM86.9866 8.89529V9.27404H87.3654V8.89529H86.9866ZM85.8819 8.89529V8.51653H85.5032V8.89529H85.8819ZM85.8819 10V10.3788H86.2607V10H85.8819ZM81.4631 10H81.0843V10.3788H81.4631V10ZM81.4631 8.89529H81.8418V8.51653H81.4631V8.89529ZM80.3583 8.89529H79.9796V9.27404H80.3583V8.89529ZM80.3583 3.37171V2.99295H79.9796V3.37171H80.3583ZM81.4631 3.37171V3.75047H81.8418V3.37171H81.4631ZM82.5678 3.37171V2.99295H82.189V3.37171H82.5678ZM82.5678 8.89529H82.189V9.27404H82.5678V8.89529ZM84.7772 8.89529V9.27404H85.156V8.89529H84.7772ZM84.7772 3.37171H85.156V2.99295H84.7772V3.37171ZM81.4631 2.267V2.64576H85.8819V2.267V1.88824H81.4631V2.267ZM85.8819 2.267H85.5032V3.37171H85.8819H86.2607V2.267H85.8819ZM85.8819 3.37171V3.75047H86.9866V3.37171V2.99295H85.8819V3.37171ZM86.9866 3.37171H86.6079V8.89529H86.9866H87.3654V3.37171H86.9866ZM86.9866 8.89529V8.51653H85.8819V8.89529V9.27404H86.9866V8.89529ZM85.8819 8.89529H85.5032V10H85.8819H86.2607V8.89529H85.8819ZM85.8819 10V9.62124H81.4631V10V10.3788H85.8819V10ZM81.4631 10H81.8418V8.89529H81.4631H81.0843V10H81.4631ZM81.4631 8.89529V8.51653H80.3583V8.89529V9.27404H81.4631V8.89529ZM80.3583 8.89529H80.7371V3.37171H80.3583H79.9796V8.89529H80.3583ZM80.3583 3.37171V3.75047H81.4631V3.37171V2.99295H80.3583V3.37171ZM81.4631 3.37171H81.8418V2.267H81.4631H81.0843V3.37171H81.4631ZM82.5678 3.37171H82.189V8.89529H82.5678H82.9465V3.37171H82.5678ZM82.5678 8.89529V9.27404H84.7772V8.89529V8.51653H82.5678V8.89529ZM84.7772 8.89529H85.156V3.37171H84.7772H84.3984V8.89529H84.7772ZM84.7772 3.37171V2.99295H82.5678V3.37171V3.75047H84.7772V3.37171ZM92.2009 2.267V1.88824H91.8221V2.267H92.2009ZM97.7245 2.267H98.1032V1.88824H97.7245V2.267ZM97.7245 3.37171H97.3457V3.75047H97.7245V3.37171ZM98.8292 3.37171H99.2079V2.99295H98.8292V3.37171ZM98.8292 5.58114V5.9599H99.2079V5.58114H98.8292ZM97.7245 5.58114V5.20238H97.3457V5.58114H97.7245ZM97.7245 7.79057H97.3457V8.16933H97.7245V7.79057ZM98.8292 7.79057H99.2079V7.41181H98.8292V7.79057ZM98.8292 10V10.3788H99.2079V10H98.8292ZM96.6197 10H96.241V10.3788H96.6197V10ZM96.6197 7.79057H96.9985V7.41181H96.6197V7.79057ZM95.515 7.79057H95.1363V8.16933H95.515V7.79057ZM95.515 6.68586H95.8938V6.3071H95.515V6.68586ZM94.4103 6.68586V6.3071H94.0315V6.68586H94.4103ZM94.4103 10V10.3788H94.7891V10H94.4103ZM92.2009 10H91.8221V10.3788H92.2009V10ZM94.4103 3.37171V2.99295H94.0315V3.37171H94.4103ZM94.4103 5.58114H94.0315V5.9599H94.4103V5.58114ZM96.6197 5.58114V5.9599H96.9985V5.58114H96.6197ZM96.6197 3.37171H96.9985V2.99295H96.6197V3.37171ZM92.2009 2.267V2.64576H97.7245V2.267V1.88824H92.2009V2.267ZM97.7245 2.267H97.3457V3.37171H97.7245H98.1032V2.267H97.7245ZM97.7245 3.37171V3.75047H98.8292V3.37171V2.99295H97.7245V3.37171ZM98.8292 3.37171H98.4504V5.58114H98.8292H99.2079V3.37171H98.8292ZM98.8292 5.58114V5.20238H97.7245V5.58114V5.9599H98.8292V5.58114ZM97.7245 5.58114H97.3457V7.79057H97.7245H98.1032V5.58114H97.7245ZM97.7245 7.79057V8.16933H98.8292V7.79057V7.41181H97.7245V7.79057ZM98.8292 7.79057H98.4504V10H98.8292H99.2079V7.79057H98.8292ZM98.8292 10V9.62124H96.6197V10V10.3788H98.8292V10ZM96.6197 10H96.9985V7.79057H96.6197H96.241V10H96.6197ZM96.6197 7.79057V7.41181H95.515V7.79057V8.16933H96.6197V7.79057ZM95.515 7.79057H95.8938V6.68586H95.515H95.1363V7.79057H95.515ZM95.515 6.68586V6.3071H94.4103V6.68586V7.06461H95.515V6.68586ZM94.4103 6.68586H94.0315V10H94.4103H94.7891V6.68586H94.4103ZM94.4103 10V9.62124H92.2009V10V10.3788H94.4103V10ZM92.2009 10H92.5796V2.267H92.2009H91.8221V10H92.2009ZM94.4103 3.37171H94.0315V5.58114H94.4103H94.7891V3.37171H94.4103ZM94.4103 5.58114V5.9599H96.6197V5.58114V5.20238H94.4103V5.58114ZM96.6197 5.58114H96.9985V3.37171H96.6197H96.241V5.58114H96.6197ZM96.6197 3.37171V2.99295H94.4103V3.37171V3.75047H96.6197V3.37171ZM100.332 2.267V1.88824H99.9528V2.267H100.332ZM106.96 2.267H107.339V1.88824H106.96V2.267ZM106.96 3.37171V3.75047H107.339V3.37171H106.96ZM102.541 3.37171V2.99295H102.162V3.37171H102.541ZM102.541 5.58114H102.162V5.9599H102.541V5.58114ZM105.855 5.58114H106.234V5.20238H105.855V5.58114ZM105.855 6.68586V7.06461H106.234V6.68586H105.855ZM102.541 6.68586V6.3071H102.162V6.68586H102.541ZM102.541 8.89529H102.162V9.27404H102.541V8.89529ZM106.96 8.89529H107.339V8.51653H106.96V8.89529ZM106.96 10V10.3788H107.339V10H106.96ZM100.332 10H99.9528V10.3788H100.332V10ZM100.332 2.267V2.64576H106.96V2.267V1.88824H100.332V2.267ZM106.96 2.267H106.581V3.37171H106.96H107.339V2.267H106.96ZM106.96 3.37171V2.99295H102.541V3.37171V3.75047H106.96V3.37171ZM102.541 3.37171H102.162V5.58114H102.541H102.92V3.37171H102.541ZM102.541 5.58114V5.9599H105.855V5.58114V5.20238H102.541V5.58114ZM105.855 5.58114H105.476V6.68586H105.855H106.234V5.58114H105.855ZM105.855 6.68586V6.3071H102.541V6.68586V7.06461H105.855V6.68586ZM102.541 6.68586H102.162V8.89529H102.541H102.92V6.68586H102.541ZM102.541 8.89529V9.27404H106.96V8.89529V8.51653H102.541V8.89529ZM106.96 8.89529H106.581V10H106.96H107.339V8.89529H106.96ZM106.96 10V9.62124H100.332V10V10.3788H106.96V10ZM100.332 10H100.71V2.267H100.332H99.9528V10H100.332ZM109.567 2.267V1.88824H109.188V2.267H109.567ZM113.986 2.267H114.365V1.88824H113.986V2.267ZM113.986 3.37171H113.607V3.75047H113.986V3.37171ZM115.091 3.37171H115.469V2.99295H115.091V3.37171ZM115.091 4.47643V4.85519H115.469V4.47643H115.091ZM112.881 4.47643H112.502V4.85519H112.881V4.47643ZM112.881 3.37171H113.26V2.99295H112.881V3.37171ZM110.672 3.37171V2.99295H110.293V3.37171H110.672ZM110.672 5.58114H110.293V5.9599H110.672V5.58114ZM113.986 5.58114H114.365V5.20238H113.986V5.58114ZM113.986 6.68586H113.607V7.06461H113.986V6.68586ZM115.091 6.68586H115.469V6.3071H115.091V6.68586ZM115.091 8.89529V9.27404H115.469V8.89529H115.091ZM113.986 8.89529V8.51653H113.607V8.89529H113.986ZM113.986 10V10.3788H114.365V10H113.986ZM109.567 10H109.188V10.3788H109.567V10ZM109.567 8.89529H109.946V8.51653H109.567V8.89529ZM108.462 8.89529H108.084V9.27404H108.462V8.89529ZM108.462 7.79057V7.41181H108.084V7.79057H108.462ZM110.672 7.79057H111.05V7.41181H110.672V7.79057ZM110.672 8.89529H110.293V9.27404H110.672V8.89529ZM112.881 8.89529V9.27404H113.26V8.89529H112.881ZM112.881 6.68586H113.26V6.3071H112.881V6.68586ZM109.567 6.68586H109.188V7.06461H109.567V6.68586ZM109.567 5.58114H109.946V5.20238H109.567V5.58114ZM108.462 5.58114H108.084V5.9599H108.462V5.58114ZM108.462 3.37171V2.99295H108.084V3.37171H108.462ZM109.567 3.37171V3.75047H109.946V3.37171H109.567ZM109.567 2.267V2.64576H113.986V2.267V1.88824H109.567V2.267ZM113.986 2.267H113.607V3.37171H113.986H114.365V2.267H113.986ZM113.986 3.37171V3.75047H115.091V3.37171V2.99295H113.986V3.37171ZM115.091 3.37171H114.712V4.47643H115.091H115.469V3.37171H115.091ZM115.091 4.47643V4.09767H112.881V4.47643V4.85519H115.091V4.47643ZM112.881 4.47643H113.26V3.37171H112.881H112.502V4.47643H112.881ZM112.881 3.37171V2.99295H110.672V3.37171V3.75047H112.881V3.37171ZM110.672 3.37171H110.293V5.58114H110.672H111.05V3.37171H110.672ZM110.672 5.58114V5.9599H113.986V5.58114V5.20238H110.672V5.58114ZM113.986 5.58114H113.607V6.68586H113.986H114.365V5.58114H113.986ZM113.986 6.68586V7.06461H115.091V6.68586V6.3071H113.986V6.68586ZM115.091 6.68586H114.712V8.89529H115.091H115.469V6.68586H115.091ZM115.091 8.89529V8.51653H113.986V8.89529V9.27404H115.091V8.89529ZM113.986 8.89529H113.607V10H113.986H114.365V8.89529H113.986ZM113.986 10V9.62124H109.567V10V10.3788H113.986V10ZM109.567 10H109.946V8.89529H109.567H109.188V10H109.567ZM109.567 8.89529V8.51653H108.462V8.89529V9.27404H109.567V8.89529ZM108.462 8.89529H108.841V7.79057H108.462H108.084V8.89529H108.462ZM108.462 7.79057V8.16933H110.672V7.79057V7.41181H108.462V7.79057ZM110.672 7.79057H110.293V8.89529H110.672H111.05V7.79057H110.672ZM110.672 8.89529V9.27404H112.881V8.89529V8.51653H110.672V8.89529ZM112.881 8.89529H113.26V6.68586H112.881H112.502V8.89529H112.881ZM112.881 6.68586V6.3071H109.567V6.68586V7.06461H112.881V6.68586ZM109.567 6.68586H109.946V5.58114H109.567H109.188V6.68586H109.567ZM109.567 5.58114V5.20238H108.462V5.58114V5.9599H109.567V5.58114ZM108.462 5.58114H108.841V3.37171H108.462H108.084V5.58114H108.462ZM108.462 3.37171V3.75047H109.567V3.37171V2.99295H108.462V3.37171ZM109.567 3.37171H109.946V2.267H109.567H109.188V3.37171H109.567ZM116.593 2.267V1.88824H116.214V2.267H116.593ZM123.221 2.267H123.6V1.88824H123.221V2.267ZM123.221 3.37171V3.75047H123.6V3.37171H123.221ZM121.012 3.37171V2.99295H120.633V3.37171H121.012ZM121.012 10V10.3788H121.391V10H121.012ZM118.802 10H118.424V10.3788H118.802V10ZM118.802 3.37171H119.181V2.99295H118.802V3.37171ZM116.593 3.37171H116.214V3.75047H116.593V3.37171ZM116.593 2.267V2.64576H123.221V2.267V1.88824H116.593V2.267ZM123.221 2.267H122.843V3.37171H123.221H123.6V2.267H123.221ZM123.221 3.37171V2.99295H121.012V3.37171V3.75047H123.221V3.37171ZM121.012 3.37171H120.633V10H121.012H121.391V3.37171H121.012ZM121.012 10V9.62124H118.802V10V10.3788H121.012V10ZM118.802 10H119.181V3.37171H118.802H118.424V10H118.802ZM118.802 3.37171V2.99295H116.593V3.37171V3.75047H118.802V3.37171ZM116.593 3.37171H116.972V2.267H116.593H116.214V3.37171H116.593ZM125.828 2.267V1.88824H125.45V2.267H125.828ZM130.247 2.267H130.626V1.88824H130.247V2.267ZM130.247 3.37171H129.869V3.75047H130.247V3.37171ZM131.352 3.37171H131.731V2.99295H131.352V3.37171ZM131.352 10V10.3788H131.731V10H131.352ZM129.143 10H128.764V10.3788H129.143V10ZM129.143 7.79057H129.521V7.41181H129.143V7.79057ZM126.933 7.79057V7.41181H126.554V7.79057H126.933ZM126.933 10V10.3788H127.312V10H126.933ZM124.724 10H124.345V10.3788H124.724V10ZM124.724 3.37171V2.99295H124.345V3.37171H124.724ZM125.828 3.37171V3.75047H126.207V3.37171H125.828ZM126.933 3.37171V2.99295H126.554V3.37171H126.933ZM126.933 6.68586H126.554V7.06461H126.933V6.68586ZM129.143 6.68586V7.06461H129.521V6.68586H129.143ZM129.143 3.37171H129.521V2.99295H129.143V3.37171ZM125.828 2.267V2.64576H130.247V2.267V1.88824H125.828V2.267ZM130.247 2.267H129.869V3.37171H130.247H130.626V2.267H130.247ZM130.247 3.37171V3.75047H131.352V3.37171V2.99295H130.247V3.37171ZM131.352 3.37171H130.973V10H131.352H131.731V3.37171H131.352ZM131.352 10V9.62124H129.143V10V10.3788H131.352V10ZM129.143 10H129.521V7.79057H129.143H128.764V10H129.143ZM129.143 7.79057V7.41181H126.933V7.79057V8.16933H129.143V7.79057ZM126.933 7.79057H126.554V10H126.933H127.312V7.79057H126.933ZM126.933 10V9.62124H124.724V10V10.3788H126.933V10ZM124.724 10H125.102V3.37171H124.724H124.345V10H124.724ZM124.724 3.37171V3.75047H125.828V3.37171V2.99295H124.724V3.37171ZM125.828 3.37171H126.207V2.267H125.828H125.45V3.37171H125.828ZM126.933 3.37171H126.554V6.68586H126.933H127.312V3.37171H126.933ZM126.933 6.68586V7.06461H129.143V6.68586V6.3071H126.933V6.68586ZM129.143 6.68586H129.521V3.37171H129.143H128.764V6.68586H129.143ZM129.143 3.37171V2.99295H126.933V3.37171V3.75047H129.143V3.37171ZM132.854 2.267V1.88824H132.476V2.267H132.854ZM138.378 2.267H138.757V1.88824H138.378V2.267ZM138.378 3.37171H137.999V3.75047H138.378V3.37171ZM139.483 3.37171H139.861V2.99295H139.483V3.37171ZM139.483 5.58114V5.9599H139.861V5.58114H139.483ZM138.378 5.58114V5.20238H137.999V5.58114H138.378ZM138.378 7.79057H137.999V8.16933H138.378V7.79057ZM139.483 7.79057H139.861V7.41181H139.483V7.79057ZM139.483 10V10.3788H139.861V10H139.483ZM137.273 10H136.894V10.3788H137.273V10ZM137.273 7.79057H137.652V7.41181H137.273V7.79057ZM136.169 7.79057H135.79V8.16933H136.169V7.79057ZM136.169 6.68586H136.547V6.3071H136.169V6.68586ZM135.064 6.68586V6.3071H134.685V6.68586H135.064ZM135.064 10V10.3788H135.443V10H135.064ZM132.854 10H132.476V10.3788H132.854V10ZM135.064 3.37171V2.99295H134.685V3.37171H135.064ZM135.064 5.58114H134.685V5.9599H135.064V5.58114ZM137.273 5.58114V5.9599H137.652V5.58114H137.273ZM137.273 3.37171H137.652V2.99295H137.273V3.37171ZM132.854 2.267V2.64576H138.378V2.267V1.88824H132.854V2.267ZM138.378 2.267H137.999V3.37171H138.378H138.757V2.267H138.378ZM138.378 3.37171V3.75047H139.483V3.37171V2.99295H138.378V3.37171ZM139.483 3.37171H139.104V5.58114H139.483H139.861V3.37171H139.483ZM139.483 5.58114V5.20238H138.378V5.58114V5.9599H139.483V5.58114ZM138.378 5.58114H137.999V7.79057H138.378H138.757V5.58114H138.378ZM138.378 7.79057V8.16933H139.483V7.79057V7.41181H138.378V7.79057ZM139.483 7.79057H139.104V10H139.483H139.861V7.79057H139.483ZM139.483 10V9.62124H137.273V10V10.3788H139.483V10ZM137.273 10H137.652V7.79057H137.273H136.894V10H137.273ZM137.273 7.79057V7.41181H136.169V7.79057V8.16933H137.273V7.79057ZM136.169 7.79057H136.547V6.68586H136.169H135.79V7.79057H136.169ZM136.169 6.68586V6.3071H135.064V6.68586V7.06461H136.169V6.68586ZM135.064 6.68586H134.685V10H135.064H135.443V6.68586H135.064ZM135.064 10V9.62124H132.854V10V10.3788H135.064V10ZM132.854 10H133.233V2.267H132.854H132.476V10H132.854ZM135.064 3.37171H134.685V5.58114H135.064H135.443V3.37171H135.064ZM135.064 5.58114V5.9599H137.273V5.58114V5.20238H135.064V5.58114ZM137.273 5.58114H137.652V3.37171H137.273H136.894V5.58114H137.273ZM137.273 3.37171V2.99295H135.064V3.37171V3.75047H137.273V3.37171ZM140.985 2.267V1.88824H140.606V2.267H140.985ZM147.613 2.267H147.992V1.88824H147.613V2.267ZM147.613 3.37171V3.75047H147.992V3.37171H147.613ZM145.404 3.37171V2.99295H145.025V3.37171H145.404ZM145.404 10V10.3788H145.783V10H145.404ZM143.195 10H142.816V10.3788H143.195V10ZM143.195 3.37171H143.573V2.99295H143.195V3.37171ZM140.985 3.37171H140.606V3.75047H140.985V3.37171ZM140.985 2.267V2.64576H147.613V2.267V1.88824H140.985V2.267ZM147.613 2.267H147.235V3.37171H147.613H147.992V2.267H147.613ZM147.613 3.37171V2.99295H145.404V3.37171V3.75047H147.613V3.37171ZM145.404 3.37171H145.025V10H145.404H145.783V3.37171H145.404ZM145.404 10V9.62124H143.195V10V10.3788H145.404V10ZM143.195 10H143.573V3.37171H143.195H142.816V10H143.195ZM143.195 3.37171V2.99295H140.985V3.37171V3.75047H143.195V3.37171ZM140.985 3.37171H141.364V2.267H140.985H140.606V3.37171H140.985Z" fill="#C0C0C0" mask="url(#path-3-outside-2_573_1855)"/>
<defs>
<filter id="filter0_i_573_1855" x="6.00781" y="1.88823" width="141.984" height="8.49052" filterUnits="userSpaceOnUse" color-interpolation-filters="sRGB">
<feFlood flood-opacity="0" result="BackgroundImageFix"/>
<feBlend mode="normal" in="SourceGraphic" in2="BackgroundImageFix" result="shape"/>
<feColorMatrix in="SourceAlpha" type="matrix" values="0 0 0 0 0 0 0 0 0 0 0 0 0 0 0 0 0 0 127 0" result="hardAlpha"/>
<feOffset dy="2.52506"/>
<feComposite in2="hardAlpha" operator="arithmetic" k2="-1" k3="1"/>
<feColorMatrix type="matrix" values="0 0 0 0 0.937255 0 0 0 0 0.937255 0 0 0 0 0.937255 0 0 0 1 0"/>
<feBlend mode="normal" in2="shape" result="effect1_innerShadow_573_1855"/>
</filter>
</defs>
</svg>
